<svg width="1200" height="726" viewBox="0 0 1200 726" fill="none" xmlns="http://www.w3.org/2000/svg">
<g clip-path="url(#clip0_250_213)">
<path d="M1194.23 133.01L1200 131.766V92.1951H1192.68C1173.1 92.1951 1154.71 85.7122 1139.49 73.4488C1119.35 57.2488 1107.8 33.1463 1107.8 7.31707V0H92.1951V7.31707C92.1951 54.1171 54.1171 92.1951 7.31707 92.1951H0V131.766L5.76585 133.01C17.2098 135.468 21.2634 144.893 21.2634 152.195C21.2634 159.498 17.2098 168.922 5.76585 171.38L0 172.624V210.79L5.76585 212.034C17.2098 214.493 21.2634 223.917 21.2634 231.219C21.2634 238.522 17.2098 247.946 5.76585 250.405L0 251.649V287.883L3.33659 290.049C28.1561 306.117 42.9659 333.351 42.9659 362.927C42.9659 392.502 28.1561 419.737 3.33659 435.805L0 437.971V474.205L5.76585 475.449C17.2098 477.907 21.2634 487.317 21.2634 494.634C21.2634 501.951 17.2098 511.361 5.76585 513.819L0 515.063V553.229L5.76585 554.473C17.2098 556.932 21.2634 566.341 21.2634 573.659C21.2634 580.976 17.2098 590.385 5.76585 592.844L0 594.088V633.659H7.31707C51.0146 633.659 87.1171 666.863 91.6976 709.361C92.0341 712.376 92.1951 715.434 92.1951 718.537V725.854H1107.8V718.537C1107.8 671.737 1145.88 633.659 1192.68 633.659H1200V594.088L1194.23 592.844C1182.79 590.385 1178.74 580.976 1178.74 573.659C1178.74 566.341 1182.79 556.932 1194.23 554.473L1200 553.229V515.063L1194.23 513.819C1182.79 511.361 1178.74 501.951 1178.74 494.634C1178.74 487.317 1182.79 477.907 1194.23 475.449L1200 474.205V437.971L1196.66 435.805C1171.84 419.737 1157.03 392.502 1157.03 362.927C1157.03 333.351 1171.84 306.117 1196.66 290.049L1200 287.883V251.649L1194.23 250.405C1185.28 248.473 1180.84 242.283 1179.34 236.18C1178.93 234.483 1178.74 232.8 1178.74 231.219C1178.74 223.917 1182.79 214.493 1194.23 212.034L1200 210.79V172.624L1194.23 171.38C1182.79 168.922 1178.74 159.498 1178.74 152.195C1178.74 144.893 1182.79 135.468 1194.23 133.01ZM14.6341 605.429C14.8537 605.341 15.0585 605.254 15.2634 605.166C15.6878 604.99 16.0976 604.815 16.5073 604.624C16.9024 604.449 17.2683 604.273 17.6488 604.083C17.9561 603.937 18.2488 603.776 18.5415 603.615C18.9366 603.41 19.3171 603.19 19.6976 602.956C20.1073 602.722 20.5171 602.458 20.9122 602.195C21.6146 601.727 22.2878 601.244 22.9463 600.732C23.3415 600.439 23.722 600.132 24.0878 599.81C24.0878 599.795 24.1171 599.78 24.1317 599.78C24.6146 599.356 25.0829 598.932 25.5366 598.493C25.5512 598.493 25.5512 598.478 25.5659 598.463C26.0341 598.024 26.4732 597.556 26.9122 597.088C27.278 596.693 27.6439 596.283 27.9805 595.859C28.1415 595.683 28.2878 595.493 28.4341 595.302C28.7561 594.907 29.0634 594.512 29.3707 594.088C29.722 593.59 30.0732 593.078 30.3951 592.551C31.0829 591.498 31.6829 590.415 32.239 589.302C32.5171 588.746 32.7659 588.19 33.0146 587.62C33.0146 587.605 33.0293 587.605 33.0293 587.59C33.2488 587.078 33.4537 586.551 33.6585 586.024C33.6878 585.951 33.7024 585.878 33.7317 585.805C34.1268 584.722 34.4634 583.624 34.7561 582.527C34.7707 582.454 34.8 582.366 34.8146 582.278C35.0927 581.18 35.3122 580.083 35.4878 578.985C35.5024 578.927 35.5024 578.868 35.5171 578.824C35.5902 578.254 35.6634 577.698 35.722 577.141C35.7805 576.571 35.8244 575.985 35.8537 575.415V575.385C35.8829 574.8 35.8976 574.229 35.8976 573.659C35.8976 561.395 29.2683 547.61 14.6341 541.888V526.405C29.2683 520.683 35.8976 506.898 35.8976 494.634C35.8976 482.371 29.2683 468.585 14.6341 462.863V445.844C41.6195 426.834 57.6 396.132 57.6 362.927C57.6 329.722 41.6195 299.02 14.6341 280.024V262.99C29.2683 257.268 35.8976 243.483 35.8976 231.219C35.8976 218.956 29.2683 205.171 14.6341 199.449V183.966C29.2683 178.244 35.8976 164.459 35.8976 152.195C35.8976 142.976 32.1512 132.907 24.0878 126.029C21.4098 123.761 18.278 121.844 14.6341 120.424V106.566C63.6878 102.98 102.98 63.6878 106.566 14.6341H1093.43C1095.42 42.1171 1108.62 67.3902 1130.31 84.8488C1146.25 97.6976 1165.16 105.132 1185.37 106.566V120.424C1181.75 121.829 1178.63 123.732 1175.97 125.985C1167.86 132.863 1164.1 142.961 1164.1 152.195C1164.1 164.459 1170.73 178.244 1185.37 183.966V199.449C1170.73 205.171 1164.1 218.956 1164.1 231.219C1164.1 234.79 1164.66 238.478 1165.81 242.063C1168.64 250.815 1174.99 258.937 1185.37 262.99V280.024C1158.38 299.02 1142.4 329.722 1142.4 362.927C1142.4 396.132 1158.38 426.834 1185.37 445.844V462.863C1170.73 468.585 1164.1 482.371 1164.1 494.634C1164.1 506.898 1170.73 520.683 1185.37 526.405V541.888C1170.73 547.61 1164.1 561.395 1164.1 573.659C1164.1 582.878 1167.85 592.976 1175.94 599.839C1178.6 602.107 1181.74 604.01 1185.37 605.429V619.288C1136.31 622.873 1097.02 662.166 1093.43 711.219H106.566C106.376 708.541 106.068 705.893 105.659 703.288C98.6634 657.98 61.0098 622.683 14.6341 619.288V605.429Z" fill="#70461B"/>
<path d="M1164.1 152.195C1164.1 164.458 1170.73 178.244 1185.37 183.966V199.449C1170.73 205.171 1164.1 218.956 1164.1 231.219C1164.1 234.79 1164.66 238.478 1165.81 242.063C1168.64 250.815 1174.99 258.936 1185.37 262.99V280.024C1158.38 299.019 1142.4 329.722 1142.4 362.927C1142.4 396.132 1158.38 426.834 1185.37 445.844V462.863C1170.73 468.585 1164.1 482.371 1164.1 494.634C1164.1 506.897 1170.73 520.683 1185.37 526.405V541.888C1170.73 547.61 1164.1 561.395 1164.1 573.658C1164.1 582.878 1167.85 592.976 1175.94 599.839C1178.6 602.107 1181.74 604.01 1185.37 605.429V619.288C1136.31 622.873 1097.02 662.166 1093.43 711.219H106.566C106.375 708.541 106.068 705.893 105.658 703.288C98.6633 657.98 61.0096 622.683 14.634 619.288V605.429C14.8535 605.341 15.0584 605.254 15.2633 605.166C15.6877 605.005 16.0974 604.815 16.5072 604.624C16.9023 604.463 17.2828 604.273 17.6487 604.083C17.956 603.937 18.2487 603.776 18.5414 603.615C18.9365 603.41 19.317 603.19 19.6974 602.956C20.1072 602.722 20.517 602.458 20.9121 602.195C21.6145 601.727 22.2877 601.244 22.9462 600.732C23.3414 600.439 23.7218 600.132 24.0877 599.81C24.0877 599.795 24.117 599.78 24.1316 599.78C24.6145 599.356 25.0828 598.932 25.5365 598.493C25.5511 598.493 25.5511 598.478 25.5657 598.463C26.034 598.024 26.4877 597.556 26.9121 597.088C27.2779 596.693 27.6438 596.283 27.9804 595.858C28.1414 595.683 28.2877 595.493 28.434 595.302C28.756 594.907 29.0633 594.512 29.3706 594.088C29.7218 593.59 30.0731 593.078 30.395 592.551C31.0828 591.497 31.6974 590.415 32.2389 589.302C32.517 588.746 32.7804 588.19 33.0145 587.619C33.0145 587.605 33.0292 587.605 33.0292 587.59C33.2487 587.078 33.4682 586.551 33.6584 586.024C33.6877 585.951 33.7023 585.878 33.7316 585.805C34.1267 584.722 34.4779 583.624 34.756 582.527C34.7706 582.454 34.7999 582.366 34.8145 582.278C35.0926 581.18 35.3121 580.083 35.4877 578.985C35.5023 578.927 35.5023 578.868 35.517 578.824C35.5901 578.254 35.6633 577.697 35.7218 577.141C35.7804 576.556 35.8243 575.985 35.8535 575.415V575.385C35.8828 574.8 35.8974 574.229 35.8974 573.658C35.8974 561.395 29.2682 547.61 14.634 541.888V526.405C29.2682 520.683 35.8974 506.897 35.8974 494.634C35.8974 482.371 29.2682 468.585 14.634 462.863V445.844C41.6194 426.834 57.5999 396.132 57.5999 362.927C57.5999 329.722 41.6194 299.019 14.634 280.024V262.99C29.2682 257.268 35.8974 243.483 35.8974 231.219C35.8974 218.956 29.2682 205.171 14.634 199.449V183.966C29.2682 178.244 35.8974 164.458 35.8974 152.195C35.8974 142.975 32.1511 132.907 24.0877 126.029C21.4096 123.761 18.2779 121.844 14.634 120.424V106.566C63.6877 102.98 102.98 63.6877 106.566 14.634H1093.43C1095.42 42.117 1108.62 67.3901 1130.31 84.8487C1146.25 97.6974 1165.16 105.132 1185.37 106.566V120.424C1181.75 121.829 1178.63 123.732 1175.97 125.985C1167.86 132.863 1164.1 142.961 1164.1 152.195Z" fill="#DC7248"/>
<path d="M1185.37 106.566V120.424C1181.75 121.829 1178.63 123.732 1175.97 125.985C1157.65 123.073 1140.25 115.419 1125.73 103.727C1096.42 80.1365 1079.47 57.556 1074.35 35.1218H126.088C117.995 83.0633 71.0926 118.932 24.0877 126.029C21.4096 123.761 18.2779 121.844 14.634 120.424V106.566C63.6877 102.98 102.98 63.6877 106.566 14.634H1093.43C1095.42 42.117 1108.62 67.3901 1130.31 84.8487C1146.25 97.6974 1165.16 105.132 1185.37 106.566Z" fill="#EDA58C"/>
<path d="M1185.37 605.429V619.288C1136.31 622.873 1097.02 662.166 1093.43 711.22H106.566C106.375 708.542 106.068 705.893 105.658 703.288C98.6633 657.981 61.0096 622.683 14.634 619.288V613.449L15.2633 605.166C18.6438 603.79 21.5706 601.961 24.0877 599.81C47.5023 603.307 70.9316 613.976 89.4438 629.766C109.405 646.771 122.18 668.166 126.058 690.732H1074.35C1079.47 668.298 1096.42 645.717 1125.73 622.127C1140.35 610.346 1157.58 602.722 1175.94 599.839C1178.6 602.107 1181.74 604.01 1185.37 605.429Z" fill="#B65433"/>
<path d="M1074.15 146.385V579.468C1033.71 579.468 1000.93 612.249 1000.93 652.683H199.068C199.068 612.249 166.288 579.468 125.854 579.468V146.385C166.288 146.385 199.068 113.605 199.068 73.1707H1000.93C1000.93 113.605 1033.71 146.385 1074.15 146.385Z" fill="#F2E3C2"/>
<path d="M257.298 286.566L234.761 262.361C223.478 250.419 229.127 236.502 246.029 236.502C259.961 236.502 268.58 238.814 283.829 247.112V178.8C264.937 173.824 253.332 172.507 232.098 172.507C181.376 172.507 154.185 199.361 154.185 239.151C154.185 261.366 168.117 281.927 189.337 304.8L209.883 326.692C221.166 338.619 215.854 352.551 198.615 352.551C185.356 352.551 169.434 348.57 152.195 340.946V409.244C176.737 414.556 183.688 415.214 203.927 415.214C263.605 415.214 287.81 389.356 287.81 348.234C287.81 326.692 275.868 306.79 257.298 286.566Z" fill="#70461B"/>
<path d="M444.981 242.795V178.141H300.088V410.239H444.981V345.922H369.717V325.024H441.659V267H369.717V242.795H444.981Z" fill="#70461B"/>
<path d="M603.147 242.795V178.141H458.254V410.239H474.673C508.083 380.78 551.956 362.927 600 362.927C601.054 362.927 602.093 362.941 603.147 362.956V345.922H527.883V325.024H599.839V267H527.883V242.795H603.147Z" fill="#70461B"/>
<path d="M725.839 178.141V219.263C697.317 193.727 659.854 178.141 616.42 178.141V363.629C641.327 365.766 664.844 372.702 686.049 383.532V266.341C708.454 278.049 719.708 299.327 723.878 334.536C725.152 345.19 725.766 357.117 725.839 370.449V410.239H795.469V178.141H725.839Z" fill="#70461B"/>
<path d="M812.049 178.141V410.239H881.678V178.141H812.049Z" fill="#70461B"/>
<path d="M894.951 178.141V242.795H936.732V410.239H1006.36V242.795H1047.8V178.141H894.951Z" fill="#70461B"/>
<path d="M758.049 547.317C758.049 587.795 742.829 624.717 717.805 652.683H482.195C457.171 624.717 441.951 587.795 441.951 547.317C441.951 460.024 512.707 389.268 600 389.268C687.293 389.268 758.049 460.024 758.049 547.317Z" fill="#AED6D8"/>
<path d="M765.366 547.317C765.366 585.922 751.946 623.093 727.434 652.683H707.986L712.346 647.81C737.107 620.151 750.732 584.458 750.732 547.317C750.732 464.21 683.107 396.585 600 396.585C516.893 396.585 449.268 464.21 449.268 547.317C449.268 584.458 462.893 620.151 487.654 647.81L492.015 652.683H472.566C448.054 623.093 434.634 585.922 434.634 547.317C434.634 456.132 508.815 381.951 600 381.951C691.186 381.951 765.366 456.132 765.366 547.317Z" fill="#70461B"/>
<path d="M600 576.381C616.052 576.381 629.064 563.369 629.064 547.317C629.064 531.266 616.052 518.254 600 518.254C583.949 518.254 570.937 531.266 570.937 547.317C570.937 563.369 583.949 576.381 600 576.381Z" fill="#AED6D8"/>
<path d="M600 582.439C580.639 582.439 564.878 566.678 564.878 547.317C564.878 527.956 580.639 512.195 600 512.195C619.361 512.195 635.122 527.956 635.122 547.317C635.122 566.678 619.361 582.439 600 582.439ZM600 524.312C587.312 524.312 576.995 534.629 576.995 547.317C576.995 560.005 587.312 570.322 600 570.322C612.688 570.322 623.005 560.005 623.005 547.317C623.005 534.629 612.688 524.312 600 524.312Z" fill="#70461B"/>
<path d="M600 494.634C619.397 494.634 635.122 478.909 635.122 459.512C635.122 440.115 619.397 424.39 600 424.39C580.603 424.39 564.878 440.115 564.878 459.512C564.878 478.909 580.603 494.634 600 494.634Z" fill="#70461B"/>
<path d="M687.805 538.537C707.202 538.537 722.927 522.812 722.927 503.415C722.927 484.017 707.202 468.293 687.805 468.293C668.408 468.293 652.683 484.017 652.683 503.415C652.683 522.812 668.408 538.537 687.805 538.537Z" fill="#70461B"/>
<path d="M512.195 538.537C531.593 538.537 547.317 522.812 547.317 503.415C547.317 484.017 531.593 468.293 512.195 468.293C492.798 468.293 477.073 484.017 477.073 503.415C477.073 522.812 492.798 538.537 512.195 538.537Z" fill="#70461B"/>
<path d="M687.805 626.341C707.202 626.341 722.927 610.617 722.927 591.219C722.927 571.822 707.202 556.097 687.805 556.097C668.408 556.097 652.683 571.822 652.683 591.219C652.683 610.617 668.408 626.341 687.805 626.341Z" fill="#70461B"/>
<path d="M512.195 626.341C531.593 626.341 547.317 610.617 547.317 591.219C547.317 571.822 531.593 556.097 512.195 556.097C492.798 556.097 477.073 571.822 477.073 591.219C477.073 610.617 492.798 626.341 512.195 626.341Z" fill="#70461B"/>
<path d="M1075.61 139.068C1039.27 139.068 1009.71 109.507 1009.71 73.1706V65.8535H193.215V73.1706C193.215 109.507 163.654 139.068 127.317 139.068H120V586.785H127.317C163.654 586.785 193.215 616.346 193.215 652.683V660H1009.71V652.683C1009.71 616.346 1039.27 586.785 1075.61 586.785H1082.93V139.068H1075.61ZM1068.29 572.488C1029.72 575.971 998.898 606.79 995.415 645.366H635.063C636.059 642.117 636.585 638.678 636.585 635.122C636.585 615.717 620.854 600 601.463 600C582.073 600 566.341 615.717 566.341 635.122C566.341 638.678 566.868 642.117 567.863 645.366H207.527C204.029 606.79 173.21 575.971 134.634 572.488V153.366C173.21 149.883 204.029 119.063 207.527 80.4877H995.415C998.898 119.063 1029.72 149.883 1068.29 153.366V572.488Z" fill="#70461B"/>
<path d="M402.439 517.317H165.366" stroke="#70461B" stroke-width="14.6341" stroke-miterlimit="10"/>
<path d="M402.439 556.829H165.366" stroke="#70461B" stroke-width="14.6341" stroke-miterlimit="10"/>
<path d="M402.439 477.805H165.366" stroke="#70461B" stroke-width="14.6341" stroke-miterlimit="10"/>
<path d="M1034.63 517.317H797.561" stroke="#70461B" stroke-width="14.6341" stroke-miterlimit="10"/>
<path d="M1034.63 556.829H797.561" stroke="#70461B" stroke-width="14.6341" stroke-miterlimit="10"/>
<path d="M1034.63 477.805H797.561" stroke="#70461B" stroke-width="14.6341" stroke-miterlimit="10"/>
<path d="M231.219 125.854H968.78" stroke="#70461B" stroke-width="14.6341" stroke-miterlimit="10"/>
<path d="M512.195 538.536C531.593 538.536 547.317 522.812 547.317 503.414C547.317 484.017 531.593 468.292 512.195 468.292C492.798 468.292 477.073 484.017 477.073 503.414C477.073 522.812 492.798 538.536 512.195 538.536Z" fill="#70461B"/>
<path d="M630.146 441.512C623.751 434.576 614.575 430.244 604.39 430.244C585 430.244 569.268 445.961 569.268 465.366C569.268 471.951 571.083 478.127 574.258 483.395C568.434 477.117 564.878 468.732 564.878 459.512C564.878 440.107 580.61 424.39 600 424.39C612.819 424.39 624.029 431.254 630.146 441.512Z" fill="#B65433"/>
<path d="M717.951 485.415C711.556 478.478 702.381 474.146 692.195 474.146C672.805 474.146 657.073 489.863 657.073 509.268C657.073 515.854 658.888 522.029 662.064 527.298C656.239 521.02 652.683 512.634 652.683 503.415C652.683 484.01 668.415 468.293 687.805 468.293C700.625 468.293 711.834 475.156 717.951 485.415Z" fill="#B65433"/>
<path d="M542.342 485.415C535.946 478.478 526.771 474.146 516.585 474.146C497.195 474.146 481.463 489.863 481.463 509.268C481.463 515.854 483.278 522.029 486.454 527.298C480.629 521.02 477.073 512.634 477.073 503.415C477.073 484.01 492.805 468.293 512.195 468.293C525.015 468.293 536.224 475.156 542.342 485.415Z" fill="#B65433"/>
<path d="M717.951 573.219C711.556 566.283 702.381 561.951 692.195 561.951C672.805 561.951 657.073 577.668 657.073 597.073C657.073 603.658 658.888 609.834 662.064 615.102C656.239 608.824 652.683 600.439 652.683 591.219C652.683 571.814 668.415 556.097 687.805 556.097C700.625 556.097 711.834 562.961 717.951 573.219Z" fill="#B65433"/>
<path d="M542.342 573.219C535.946 566.283 526.771 561.951 516.585 561.951C497.195 561.951 481.463 577.668 481.463 597.073C481.463 603.658 483.278 609.834 486.454 615.102C480.629 608.824 477.073 600.439 477.073 591.219C477.073 571.814 492.805 556.097 512.195 556.097C525.015 556.097 536.224 562.961 542.342 573.219Z" fill="#B65433"/>
<path d="M631.127 616.405C624.732 609.468 615.556 605.137 605.371 605.137C585.98 605.137 570.249 620.854 570.249 640.259C570.249 641.985 570.38 643.698 570.629 645.366H567.614C566.473 641.927 565.858 638.239 565.858 634.405C565.858 615 581.59 599.283 600.98 599.283C613.8 599.283 625.01 606.146 631.127 616.405Z" fill="#B65433"/>
<g style="mix-blend-mode:multiply" opacity="0.5">
<path d="M1157.03 362.927C1157.03 392.502 1171.84 419.736 1196.66 435.805L1200 437.97V474.205L1194.23 475.449C1182.79 477.907 1178.74 487.317 1178.74 494.634C1178.74 501.951 1182.79 511.361 1194.23 513.819L1200 515.063V553.229L1194.23 554.473C1182.79 556.931 1178.74 566.341 1178.74 573.658C1178.74 580.975 1182.79 590.385 1194.23 592.844L1200 594.087V633.658H1192.68C1145.88 633.658 1107.8 671.736 1107.8 718.536V725.853H92.1951V718.536C92.1951 715.434 92.0341 712.375 91.6975 709.361L98.6926 706.317L105.658 703.288L112.493 700.317L205.171 660L238.8 645.366L435.132 559.961L442.244 556.858L449.415 553.741L494.883 533.956L546.351 511.566L589.185 492.922H589.2L631.815 474.38L707.283 441.556H707.298L714.527 438.395L721.566 435.336L779.254 410.239L795.468 403.185L812.049 395.97L881.678 365.678L936.732 341.722L1006.36 311.429L1066.83 285.131L1081.46 278.751L1165.81 242.063L1172.55 239.136L1179.34 236.18C1180.84 242.283 1185.28 248.473 1194.23 250.405L1200 251.648V287.883L1196.66 290.048C1171.84 306.117 1157.03 333.351 1157.03 362.927Z" fill="#E5B58E"/>
</g>
</g>
<defs>
<clipPath id="clip0_250_213">
<rect width="1200" height="725.854" fill="white"/>
</clipPath>
</defs>
</svg>
