<?xml version="1.0" encoding="UTF-8"?>
<svg id="Layer_2" data-name="Layer 2" xmlns="http://www.w3.org/2000/svg" viewBox="0 0 820.92 823.96">
  <defs>
    <style>
      .cls-1 {
        fill: #0b0920;
      }
    </style>
  </defs>
  <g id="Layer_1-2" data-name="Layer 1">
    <g id="_0b0920ff" data-name="#0b0920ff">
      <path class="cls-1" d="M330.22,0c.62.87,1.22,1.78,1.38,2.87,1.56,7.04,2.6,14.19,4.49,21.15,5.62-4.22,11.2-8.62,17.46-11.86-4.03,6.17-8.82,11.82-12.91,17.95,5.81,1.16,11.63,2.36,17.49,3.29,2.04.36,4.19.53,5.94,1.77-7.42,1.97-15.09,2.8-22.61,4.25,3.59,6.23,8.22,11.78,11.86,17.97-6.07-4.17-11.71-8.94-17.72-13.2-1.02,5.3-1.99,10.6-2.95,15.91-.46,2.22-.71,4.57-2.01,6.5-1.91-7.37-2.91-14.95-4.78-22.33-5.7,3.8-10.81,8.44-16.55,12.16,3.16-5.98,7.86-11.03,10.74-17.19-5.25-.7-10.42-1.88-15.64-2.77-2.42-.47-4.95-.69-7.11-1.95,7.74-1.72,15.49-3.47,23.33-4.73-4.05-6.14-9.11-11.56-13.02-17.8,6.51,3.2,11.87,8.43,18.58,11.27,1.36-7.75,2.54-15.54,4.03-23.26Z"/>
      <path class="cls-1" d="M597.14,4.98c1.49,3.81,1.88,7.92,2.42,11.94,1.08-.66,2.17-1.32,3.28-1.96.03,1.24.06,2.47.11,3.71,3.86.66,7.79.99,11.62,1.91-4.27.52-8.3,2.01-12.21,3.72,1.03,2.8,2.65,5.3,4.25,7.8-2.44-1.25-4.72-2.77-7.1-4.12-.97,3.71-1.61,7.48-2.48,11.2-1.24-3.71-1.58-7.63-2.37-11.44-2.4,1.56-4.67,3.35-7.22,4.66,1.58-2.84,3.87-5.21,5.44-8.05-4.54-1.03-8.91-2.64-13.42-3.76,4.49-.76,9-1.39,13.56-1.52-.77-1.74-1.63-3.44-2.42-5.17,1.48.98,2.91,2.03,4.38,3.05,1.34-3.86,1.3-8,2.16-11.97Z"/>
      <path class="cls-1" d="M523.21,36.84c4.71-2.55,10.69-2.39,15.35.2,3.79,2.21,4.73,6.83,6.76,10.4,4.37,8.03,8.36,16.26,12.48,24.42,2.11,4.36,4.9,8.52,5.8,13.35.29,4.72-2.95,8.86-6.9,11.07-12.69,7.21-25.87,13.5-38.75,20.34-24.65,13.47-49.93,25.76-74.52,39.37-32.2,16.82-64.15,34.13-96.51,50.64-17.34,9.01-34.55,18.24-52,27.03-5.96,3.21-12.11,6.05-17.97,9.43,1.06.75,2.02,2.24,3.55,1.72,24-4.35,48.01-8.69,71.93-13.48,4.97-9.9,11.98-18.8,21.11-25.18,14.31-9.73,31.46-16.19,48.98-15.23,18.87.8,36.53,10.47,49.15,24.24,11.15-2.19,22.35-4.15,33.53-6.14,15.09-24.14,45.25-37.49,73.27-32.98,19.7,3.75,36.41,17.54,46.34,34.65,4.72.05,9.74,1.59,12.62,5.56,4.23,5.93,5.72,14.1,3.12,20.99-.85,2.87-5,4.37-4.01,7.72,2.45,13.25,1.81,27.09-2.35,39.94-4.74,16.15-16.02,30.22-30.76,38.33,3.56,20.05,7.47,40.02,11.21,60.03.56,1.56.12,4.11,2.2,4.57,12.2,4.7,25.95,7.45,38.73,3.45,14.65-4.09,26.68-15.4,33.04-29.05,1.97-4.25,3.97-8.54,5.1-13.1-.35-2.27-2.19-3.97-3.17-5.98-4.16-6.89-5.14-15.11-4.76-23-1.53-3.34-4.31-5.87-6.34-8.89-8.98-12.56-15.8-27.43-15.7-43.13-.12-12.78,6.31-25.76,17.33-32.5,5.17-3.15,11.35-4,17.32-3.82,2.11-11.87,5.54-24.02,13.19-33.59,5.42-6.72,14.13-11.34,22.91-10.15,5.71.87,11.23,3.64,14.99,8.1,5.14,5.7,7.23,13.36,8.58,20.74,5.83-1.14,12.11-1.54,17.62,1.07,8.97,3.57,15.05,12.58,15.76,22.11,7.81-.48,15.99,1.87,21.35,7.81,8.56,9.19,9.39,22.93,6.89,34.66-3.1,12.9-9.55,24.78-17.28,35.47-10.23,13.45-22.93,25.9-39.03,31.9-4.36,11.03-15.91,18.63-27.71,18.64-6.99,16.31-18.3,30.5-31.66,42.06-21.81,18.78-52.75,26.12-80.68,19.14,4.24,22.49,8.69,44.94,13.08,67.4,2.59,10.94-3.06,22.52-11.75,29.12-4.75,3.78-11,4.27-16.71,5.54-15.7,3.26-31.41,6.5-46.98,10.3,11.45,10.52,21.62,22.48,29.76,35.76,6,10.38,11.79,20.95,15.95,32.22,6.01-.58,12.41-1.75,18.14.79,2.27.92,4.21,2.77,6.71,3.1,2,.3,2.71-1.86,3.62-3.18,7.78-14.52,18.47-27.37,30.73-38.32,8.43-7.67,18.26-13.69,28.64-18.36,15.37-6.7,33.16-9.2,49.38-4.08,10.27,3.47,19.34,10.87,24.1,20.7,5.31,9.88,4.76,21.64,2.74,32.34-2.9,16.01-10.42,30.69-18.85,44.44-10.18,16.96-22.63,32.45-36.02,46.98-17.42,18.41-36.47,35.39-57.7,49.31-11.48,7.41-23.93,14.28-37.71,15.92-8.26,1.1-16.67-2.19-22.39-8.16-13.44-13.62-20.44-32.57-22.33-51.37-.36-2.58-2.64-4.24-4-6.29-8.49-10.71-9.45-25.44-7-38.41.42-3.15,2.14-6.12,2.04-9.29-4.49-18.14-11.18-36.02-21.9-51.46-8.37-11.42-19.49-21.57-33.27-25.8-14.85-4.71-31.24-1.72-44.78,5.47-7.08,3.43-13.82,7.91-21.62,9.52-5.57.96-11.97.85-16.5-2.97-2.77-2.28-3.65-5.93-4.16-9.31-9.6,2.19-19.14,4.68-28.76,6.8-3.78,20.51-11.3,40.29-21.41,58.5-9.61,16.96-21.35,33.14-36.93,45.1-11.83,9.47-26.47,16.47-41.92,15.98-16.37.27-32.07-7.05-44.22-17.68-8.34-6.8-15.08-15.21-21.7-23.63-8.42,5.1-19.74,5.17-28.06-.15-4.43,4.77-10.27,8.59-12.69,14.89-5.67,12.03-14.12,22.35-22.14,32.85-8.73,11.04-19.71,20.49-32.49,26.55-11.43,5.3-25.53,5.39-36.6-.9-9.85-5.16-16.09-15.22-19.44-25.52-4.11-13.84-2.42-28.86,2.39-42.3,6.28-18.58,17.34-35.18,29.99-50.01,13.72-15.96,29.43-30.19,46.56-42.42,12.66-8.55,25.78-16.97,40.57-21.31,7.21-2.19,15.4-2.22,22.16,1.41,8.18,4.24,13.21,12.77,15.63,21.41,1.34,4.01,1.64,8.25,2.63,12.34,8.13,6.21,14.48,15.05,16.61,25.16,1.2,4.71.14,9.49-.83,14.12,8.14,10.42,17.48,20.57,29.61,26.33,7.71,3.66,17.16,4.79,25.03.96,10.52-4.89,17.86-14.39,24.15-23.81,7.33-11.25,12.47-23.8,15.94-36.75-15.58,2.29-30.75,6.88-46.35,9.1-6.92,1-13.73-2.13-19.19-6.13-3.68-2.62-5.82-6.78-6.72-11.12-8.82-41.98-16.86-84.11-25.17-126.19-3.71-18.19-7.03-36.46-11.27-54.53-15.31-7.23-32.59-10.82-49.47-8.45-18.36,2.05-35.08,11.87-47.87,24.88-1.06,1.35-3.22,2.76-1.94,4.67,1.8,4.57,3.39,9.34,3.27,14.33.15,6.36-2.24,12.4-5.18,17.92,7.04,12.99,10.26,28.23,7.43,42.86-2.85,14.74-10.15,29.44-22.81,38.08-7.85,5.43-18.36,5.63-26.93,1.78-5.11,7.06-11.97,13.11-20.35,15.9-10.9,3.73-23.83,1.14-32.15-6.92-3.91-3.48-5.96-8.42-7.89-13.16-14.04-3.63-23.61-17.85-22.96-32.13-5.87-4.45-10.42-10.75-11.96-18.03-3.88-16.96,2.73-34.88,14.22-47.45,14.21-15.62,34.35-26.07,55.5-27.65,2.69-1.86,4.21-5.07,6.94-6.96,7.01-5.86,16.53-7.04,25.35-6.52,14.85-14.63,32.54-26.5,52.05-33.93,19.27-7.34,40.58-9.31,60.83-5.37,4.89.89,9.71,2.09,14.53,3.29-1.83-10.85-4.44-21.58-7.05-32.27-4.81.27-9.94-2.43-11.06-7.38-1.92-8.6-3.17-17.34-5.14-25.94-2.07-9.46-3.25-19.11-5.64-28.5-4.32-12.38-10.44-24.01-15.8-35.95-1.28-3.3-3.16-7.21-1.23-10.64,2.48-4.05,7.27-5.55,11.18-7.82,17.73-9.74,35.9-18.64,53.66-28.35,13.37-6.93,26.5-14.31,39.99-21.01,37.65-20.05,75.47-39.77,113.1-59.84,40.37-20.83,80.3-42.51,120.67-63.33M523.58,42.26c-19.16,10.25-38.5,20.14-57.72,30.26-18.06,9.63-36,19.5-54.3,28.67-17.84,9.45-35.64,18.99-53.43,28.51-18.69,9.53-37.27,19.27-55.7,29.28-22.3,11.72-44.62,23.42-66.96,35.06-3.84,2-7.81,3.75-11.44,6.11,3.79,1.87,7.34,4.21,10.45,7.09,10.41,8.41,19.98,17.77,30.05,26.57,4.9-1.98,9.65-4.29,14.35-6.68-15.16-8.84-30.06-18.16-45.68-26.2,3.56-3.08,8.07-4.66,12.13-6.93,6.4-3.09,12.52-6.81,19.17-9.36,15.33,9.03,30.44,18.49,46,27.14,9.87-5.01,19.68-10.17,29.37-15.51-14.41-8.34-28.81-16.73-43.09-25.31-.85-.67-2.72-1.15-2.19-2.59,9.54-5.44,19.51-10.12,29.03-15.63,14.89,8.93,29.73,17.96,44.82,26.57,2.31,1.92,4.83-.27,7.03-1.27,7.84-4.38,16.21-7.83,23.71-12.8-15.23-9.16-30.8-17.78-45.83-27.29,8.2-4.94,16.94-8.89,25.21-13.7,2.32-1.04,4.85-3.63,7.34-1.54,13.6,8.1,27.3,16.05,40.86,24.22,1.64.87,3.57,2.48,5.38,1.01,8.98-4.66,17.95-9.36,26.92-14.04-2.82-2.4-6.11-4.1-9.25-6.01-12.14-7.24-24.3-14.44-36.32-21.88,6.86-4.3,14.33-7.52,21.41-11.45,3.13-1.54,6.12-3.55,9.53-4.42,14.66,8.18,28.72,17.44,43.25,25.87,1.03.52,2.24,1.57,3.43.76,9.28-4.67,18.25-9.94,27.44-14.79-15.02-9.24-30.07-18.42-44.95-27.89,9.7-5.72,19.87-10.73,29.84-15.91,4.2,1.48,7.78,4.26,11.66,6.4,12.55,7.44,25.04,15,37.63,22.36,1.71.99-.62,2.39-1.49,2.96-7.8,4.59-15.97,8.57-23.78,13.16-10.97,6.4-22.37,12.12-32.96,19.13,7.76-2.19,14.54-6.76,21.74-10.25,12.36-6.27,24.54-12.89,36.85-19.25,3.5-1.66,6.71-5.75,4.65-9.69-6.15-12.19-12.45-24.31-18.44-36.58-1.13-2.06-2.1-4.56-4.4-5.56-3.72-1.7-7.94-.52-11.32,1.4M551.59,182.18c-13.63,3.83-25.46,13.15-33.17,24.92-7.8,10.93-11.16,24.4-12.03,37.63-7.1.66-14.18,1.7-20.79,4.52-5.38-12.78-11.76-25.52-22.1-35.05-11.95-10.86-27.57-18.53-43.99-18.22-17.31-.47-34.35,7.56-45.66,20.53-9.75,11.22-15.7,25.59-16.88,40.4-4.64,1.93-9.4,3.6-13.93,5.79-1.42,6.04-.86,12.89,2.93,17.99,2.67,2.82,7.02,1.31,10.34,2.61,1.68.55,1.79,2.49,2.16,3.95,1.56,9,5.1,17.55,9.4,25.57,9.12,15.32,23.26,28.46,40.81,33.08,26.78,8.6,57.62-5.29,71.32-29.3,8.77-14.42,11.05-31.8,9.99-48.38,3.78-4.36,10.68-5.89,15.92-3.45,2.82,1.37,2.95,4.83,3.78,7.47,5.66,20.57,19.46,39.67,39.24,48.58,16.14,7.51,35.97,7.04,51.51-1.8,11.51-6.02,20.7-16.09,26.01-27.91,7.01-15.91,8.07-34.01,4.61-50.94,1.58-2.21,4.78-3.29,5.16-6.29.83-5.53-.23-12.01-4.65-15.82-2.39-2.3-5.98-.88-8.77-1.97-1.8-1.34-2.79-3.43-4.01-5.24-6.47-10.58-15.82-19.47-26.99-24.92-12.27-6.38-26.96-7.35-40.21-3.75M517.55,201.16c-10.24,10.77-16.26,25.17-17.85,39.87,1.42-.01,2.84-.02,4.27-.03,1.3-18.3,10.01-35.75,23.57-48.04-3.91,1.92-7.03,5.07-9.99,8.2M725.94,193.8c-6.92,2.35-12.05,8.22-15.22,14.62-3.87,7.65-6.42,16.05-7.29,24.59,1.51.33,3.04.67,4.57,1.01.81-7.36,3.13-14.48,6.23-21.18,3.09-6.15,7.68-12.39,14.59-14.42,4.75-1.61,10.03.55,13.11,4.33,4.61,5.31,5.91,12.46,6.6,19.24,1.55-.86,3.12-1.7,4.74-2.45-.15-5.99-2.16-11.84-5.12-17-4.26-7.49-13.97-11.53-22.21-8.74M213.47,206.07c-7.52,4.18-15.55,7.49-22.69,12.3-2.8,1.81-1.04,5.3-.22,7.72,5.14,12.09,11.38,23.69,16.04,35.99.7,2.07,3.4.51,4.94.68-2.8-7.44-6.99-14.26-10.05-21.58-2.64-6.35-6.55-12.24-8.1-18.99,1.19-1.59,3.06-2.45,4.74-3.41,6.13-3.2,12.37-6.17,18.4-9.54,1.97-1.01,4.53-2.44,6.56-.76,6.74,4.46,12.37,10.35,18.44,15.65,9.15,7.88,18.11,15.98,27.42,23.68,1.07.91,1.86,2.09,2.68,3.23-8.43,3.76-17.8,4.46-26.71,6.52-12.43,2.42-24.76,5.48-37.37,6.85.12,2.36.33,4.72.83,7.03,3.4,14.81,5.61,29.89,8.99,44.7.85,3.44,5.03,3.06,7.72,2.53,9.38-2.11,18.75-4.25,28.19-6.06,2.48-.37,3.41-3.16,5.5-4.21,6.18.49,12.46.13,18.46-1.47,2.54-1.13,4.68-2.99,6.69-4.87-7.88.68-15.59,4.01-23.56,2.7-.14-4.92,2.31-9.4,3.5-14.07,3.92-13.83,8.81-27.41,12.06-41.41-3.03-3.8-6.81-6.9-10.33-10.23-10.35-9.67-21.17-18.8-31.78-28.17-3.75-3.11-7.54-6.57-12.35-7.89-2.94-.05-5.43,1.91-8,3.08M353.12,242.68c-1.37,4.07-2.02,8.33-3.39,12.4,1.41-.37,2.83-.74,4.24-1.13,2.3-13.87,7.48-27.76,17.16-38.2,2.07-2.33,4.5-4.32,6.42-6.79-12.34,7.39-19.9,20.43-24.43,33.72M475.14,219.86c5.26,7.13,9.42,15,12.77,23.19,2.32-.46,4.64-1.02,6.97-1.52.63-9.31,3.01-18.44,7.1-26.84-8.95,1.69-18.01,2.93-26.84,5.17M755.15,223.77c-10.83,5.93-18.02,17-22.05,28.39.61.99,2.25,4.25,3.26,1.95,4.45-9.54,10.26-19.07,19.42-24.74,4.93-3.12,11.52-4.22,16.82-1.33,5.68,2.98,8.76,9.32,9.22,15.54,1.62-.77,4.23-.67,4.97-2.54-.56-7.85-5.69-14.95-12.68-18.38-6.03-2.76-13.24-2.13-18.96,1.11M216.97,224.73c-6.24,1.84-8.67,10.42-4.12,15.12,4.17,5.07,13.59,3.57,15.49-2.88,2.72-6.69-4.37-14.81-11.37-12.24M281.67,250.07c-.14,1.51-.27,3.02-.39,4.54,7.47-1.28,14.89-2.85,22.39-3.95-2.2,7.2-4.87,14.24-7.36,21.34-2.83,8.18-6.44,16.18-7.91,24.76,2.65-.54,4.9-2.07,7.02-3.67,12.04-8.93,24.06-17.9,35.8-27.23,1.93-1.19,1.99-3.59,2.52-5.55,1.07-5.13,2.69-10.12,4-15.18,3.72-.87,7.45-1.72,11.18-2.57.48-1.86.97-3.71,1.44-5.57-22.92,4.22-45.83,8.54-68.69,13.08M676.33,246.03c-8.01,9.44-8.72,22.87-6,34.46,3.74,13.8,11.3,26.42,20.97,36.89,5.78,6.6,13.14,12.93,22.43,12.96-2.51-2.36-5.53-4.07-8.14-6.3-15.02-13.25-27.67-30.71-31.02-50.81-1.18-9.03.78-19.02,7.35-25.68,4.45-4.69,11.42-6.15,17.64-5.29,13.08,1.86,24.37,10.58,31.51,21.42,3.09,4.82,5.15,11.22,2.53,16.68-3.47,6.3-11.42,8.36-18.13,7.96-8.52-.81-16.49-4.3-24.17-7.86,8.46,12.58,26.03,15.35,39.47,9.98,1.18,3.7,4.89,6.05,5.35,10.08,1.85,5.58-.34,11.22-1.55,16.66,5.31-4.25,7.34-11.33,6.65-17.92,4.69,1.3,9.59,1.2,14.35.34,2.24,3.49,4.78,7.07,8.61,8.95,6.42,3.52,14.4,3.21,20.94.18,8.97-4.08,16.06-11.39,21.47-19.49-1.41,6.14-4.86,11.51-8.21,16.75-6.54,10.18-14.81,19.28-24.41,26.65-10.76,8.34-25.23,12.07-38.55,8.69,8.61,5.1,19.58,6.18,28.96,2.58,10.13-3.93,18.45-11.29,25.82-19.09,12.05-12.88,21.83-28.62,24.92-46.19,1.43-7.71,1.07-16.19-2.99-23.08-3.43-5.84-9.67-10.35-16.61-10.42-8.43-.15-16.1,4.45-22.4,9.65-10.54,9.49-18.33,22.91-18.64,37.33.48,2.4-2.12,3.08-3.93,3.35-6.38.72-12.97-1.95-16.69-7.26,4.69-4.22,7.58-10.73,5.75-17.04-2.92-10.61-10.53-19.41-19.37-25.7-6.81-4.44-14.48-8.07-22.71-8.59-7.95-.53-16.41,2.6-21.2,9.16M313.14,285.8c-17.18,13.44-35.22,25.88-51.22,40.76-1.92,2.24-5.31,4.23-4.86,7.6.69,6.07,4.63,12.1,10.52,14.21,3.69,1.36,7.26-.85,10.02-3.11,3.87-3.2,7.68-6.76,9.96-11.31-5.45,2.83-10.37,8.38-17.01,7.55-4.58-1.63-5.67-7.18-5.99-11.45,1.5,2.85,1.97,6.4,4.52,8.6,3.3,1.39,6.6-1.03,9.41-2.56,7.57-5,14.71-10.64,22.2-15.78,15.27-11.18,30.94-21.81,45.95-33.35-6.05-5.42-8.53-13.85-7.3-21.78-8.55,7.1-17.5,13.71-26.2,20.62M493.2,273.08c2.96-.87,5.96-1.66,9.07-1.77,2.76,8.28,5.04,16.86,9.86,24.25,8.77,15.01,22.91,27.52,40,31.85,6.54,1.79,13.36,1.5,20.08,1.45l.05-.3c-16.23-.09-32.01-7.3-43.37-18.77-10.91-10.27-17.82-24.11-21.77-38.42-1.03-7.16-14.75-5.38-13.92,1.71M350.62,285.5c2.88,16.55,10.03,32.63,21.62,44.93,9.94,10.36,22.77,18.76,37.24,20.72,5.83.96,11.74.25,17.61.35,0-.17.01-.53.01-.7-3.19.27-6.4.32-9.57-.15-12.9-2.25-25.18-7.86-35.28-16.22-14.4-12.45-23.46-30.31-26.77-48.92-1.63-.01-3.25-.02-4.86-.01M335.51,300.94c4.82-.99,9.68-1.73,14.53-2.56-.5-2.1-.99-4.19-1.45-6.29-4.36,2.95-8.88,5.67-13.08,8.85M519.92,316.6c-12.23,2.77-24.65,4.65-36.93,7.14-2.83,1.54-4.36,4.77-6.55,7.1,16.67-3.37,33.48-6.09,50.04-10-1.95-1.66-3.51-5.28-6.56-4.24M229.02,324.13c2.2,11.7,5.04,23.27,7.68,34.87.21,2.67,3.28,2.95,5.22,3.84-2.43-13.22-5.46-26.32-7.97-39.52-1.65.25-3.29.53-4.93.81M690.82,323.94c-.72,13.3,7.96,25.34,19.01,31.91,8.14,4.54,17.27,7.92,26.71,7.6,8.66-.3,17.53-5.19,21.09-13.32-4.44,1.17-7.74,4.69-12.05,6.19-8.35,3.94-18.06,2.29-26.38-.86-10.6-4.43-20.19-12.35-24.89-23.03-1.3-2.78-1.62-5.99-3.49-8.49M593.15,328.22c10.64,54.72,20.95,109.52,31.99,164.16,1.03,5.21,2.32,10.74.44,15.93-1.92,6.35-7.16,11.81-13.85,12.95-13.47,2.76-26.84,6.02-40.29,8.85-7.09,1.58-14.26,2.86-21.25,4.84,1.99,1.06,3.79,3.44,6.3,2.56,18.82-4,37.62-8.07,56.42-12.15,12-1.53,20.42-14.56,18.74-26.13-11.68-57.73-22.1-115.71-33.18-173.56-1.67.87-4.67.58-5.32,2.55M287.64,355.52c-6.07,1.22-12.23,2.03-18.17,3.81-.04,1.58-.36,3.8,1.41,4.62,2.22.24,4.4-.44,6.57-.81,27.02-5.15,53.99-10.56,81.06-15.47,2.03-.77,1.99,2.07,2.38,3.28,4.88,23.07,9.16,46.27,13.82,69.39-6.86,2.32-14.08,3.25-21.09,4.95-22.91,4.45-45.76,9.17-68.68,13.56-1.52.48-4.03.36-4.15,2.47-.19,1.68.77,4,2.74,4.02,18.98-3.85,37.95-7.76,56.98-11.37,11.86-2.1,23.53-5.31,35.46-6.97,4.03,22.2,9.1,44.2,13.14,66.41-7.35,2.2-14.96,3.39-22.45,5.02-23.33,4.98-46.75,9.56-70,14.9-3.61.44-2.1,7.47,1.64,5.7,56.73-12.04,113.53-23.9,170.32-35.69,5.96-1.17,11.84-2.76,17.87-3.53l.79.39c1.96,7.33,3.59,14.85,4.2,22.42-40.23,8.85-80.62,16.93-120.85,25.81-22.69,4.98-45.53,9.31-68.1,14.78-2.76.85-1.78,4.03-.83,5.91,7.72-.97,15.2-3.3,22.82-4.85,22.82-4.81,45.66-9.5,68.43-14.54,3.04-.66,6.08-1.42,9.2-1.54,1.29,6.29,2.59,12.57,3.71,18.89.41,1.66.5,3.69,2.09,4.73,2.13.45,5.13-1.06,4.42-3.59-1.08-7.42-3.64-14.58-4.34-22.06,27.3-5.25,54.42-11.43,81.68-16.9,37.77-8.4,75.72-16.02,113.52-24.25,3.18-.65,1.63-7.14-1.54-5.71-10.19,2.42-20.45,4.49-30.7,6.61-24.3,4.86-48.47,10.37-72.8,15.1-2.01-7.43-3.51-15.04-4.62-22.66,8.4-2.38,17.04-3.73,25.54-5.68,26.08-5.82,52.33-10.86,78.43-16.53,2.88-.47,1.61-3.68,1.43-5.59-1.08-.06-2.14-.04-3.2.05-22.25,4.76-44.59,9.12-66.84,13.9-41.77,9.06-83.67,17.46-125.48,26.35-2.8.66-5.64,1.2-8.52,1.29-7.92-41.15-15.98-82.26-24.25-123.34-1.47-7.49-3.62-14.88-4.33-22.51,4.57-.9,9.15-1.8,13.64-3.08-1.87-1.49-3.72-2.98-5.49-4.57-29,5.37-57.92,11.21-86.86,16.88M533.36,345.95c5.29.04,10.6-1.56,15.85-.37.05,1.29.82,2.86-.21,3.97-2.9,3.25-6.83,5.33-10.56,7.47-8.21,4.26-16.77,7.9-25.65,10.5-19.53,5.31-39.96,8.08-60.18,6.12-11.19-1.16-22.5-2.4-33.14-6.26,5.45,3.52,11.73,5.45,17.99,7,22.66,5.16,46.52,4.4,69-1.38,11.18-2.6,22.19-6.17,32.39-11.5,5.69-3,11.81-6.17,15.39-11.73,2.03-3.28-1.23-7.48-4.77-7.5-5.58-.25-10.94,1.83-16.11,3.68M160.66,363.27c-12.1,4.44-23.8,10.21-34.32,17.7-6.02,4.65-12.44,8.88-17.76,14.35.16,2.06,2.9,1.67,4.3,2.51,4.35,1.26,9.81,3.21,13.89.45-2.82-.48-5.68-.52-8.53-.65,3.65-2.71,8.48,0,12.55-1.5-2.35-1.99-5.65-1.64-8.47-2.44,4.13-2.38,9.17.79,13.3-1.57-2.86-1.42-6.09-1.31-9.19-1.55,4.07-2.09,8.7-.8,13.03-.64-.69-3.11-5.22-1.82-7.66-2.21.02-.28.04-.85.06-1.14,3.95-.04,7.89.14,11.82.51-1.04-3.06-5.32-1.55-7.44-3.62,4.29-1.04,9.04,2.27,12.88-.23-2.64-.9-5.38-1.57-7.85-2.89,4.35-.5,8.61,1.02,12.95.68.47-1.82-1.59-1.43-2.7-1.8-1.59-.31-3.27-.67-4.37-1.97,4.24-.19,8.36,1.67,12.59.8-1.81-1.95-4.59-1.88-7.01-2.38,0-.33.02-1.01.03-1.35,4.63-.46,9.29,2.91,13.68.51-2.7-.8-5.41-1.56-8.11-2.32,4.3-3.06,8.94,2.06,13.56.77-1.94-1.77-4.46-2.66-6.61-4.11,4.76-.75,8.91,2.38,13.58,2.29-1.9-1.77-4.26-2.89-6.47-4.18,5.05-.9,9.3,2.63,14.22,2.82-1.94-1.43-4.04-2.63-5.88-4.17,5.06-1.37,9.08,2.76,13.88,3.24-1.86-1.88-4.15-3.23-6.2-4.87,4.95-.49,8.94,2.67,13.38,4.17-1.25-1.59-2.65-3.04-3.9-4.61,4.67-.23,8.18,3.04,12.13,4.92-.95-1.6-2.07-3.09-3.07-4.65,4.86.36,8.33,3.93,12.39,6.14-1.09-1.57-2.24-3.09-3.24-4.69,4.26.27,7.14,3.65,10.32,6.05-.58-1.44-1.15-2.88-1.69-4.33,4.58.75,7.25,4.69,10.82,7.15-.61-1.64-1.37-3.22-2.04-4.83,4.3,1.48,7.85,4.4,10.93,7.68-.25-1.15-.51-2.28-.76-3.41,5.34,1.99,9.44,5.96,13.95,9.27-2.73-8.12-10.89-12.73-18.37-15.81-24.42-11.28-53.11-12.47-78.6-4.09M388.49,384.23c2.41-2.33,4.16-5.22,6.55-7.56,6.4-6.74,14.76-11.17,21.48-17.52-12.37,3.63-23.04,13.19-28.03,25.08M716.44,365.33c1.03,2.52,4.53,1.67,6.28,3.56-1.83.22-3.66.36-5.48.53,1.68.63,3.37,1.21,5.06,1.9-2.5,2.51-6.18.83-9.24,1.08,1.39,2.15,5.31,1.37,5.99,3.78-2.47,1.84-5.88.17-8.69.15.93,2.73,4.63,2.06,6.66,3.7-2.83,1.48-6.06.64-9.08.99,1.29,1.95,6.26.97,5.44,3.88-3.01.71-6.1.1-9.14.24,1.61,2.16,6.22.95,6.13,4.11-3.04.82-6.19.07-9.27.2,1.81,1.63,4.16,2.39,6.27,3.57-3.06,1.82-6.56.65-9.85.53.43,2.81,5.28,1.4,4.86,4.42-3.06.28-6.12-.11-9.17.11,1.34,1.76,3.57,1.93,5.56,2.4-2,3.42-6.29,1.15-9.32.94.73,2.37,3.76,2.31,5.52,3.65-3.37,1.57-7,.58-10.49.23,1.42,1.39,3.01,2.59,4.59,3.82-2.99,1.49-6.13.36-9.14-.27.94,1.3,2.07,2.46,3.2,3.64-2.92,1.44-5.73-.63-8.52-1.36,1.15,1.4,2.46,2.67,3.81,3.9-.48.19-1.42.57-1.9.77-2.03-.91-4.1-1.73-6.2-2.41,1.1,1.32,2.24,2.6,3.32,3.97-2.96.46-5.64-1.04-8.39-1.81,1.05,1.32,2.25,2.53,3.44,3.75-3.23,1.2-6.03-1.5-9.06-2.18,1.35,1.45,2.78,2.81,4.09,4.31-3.23.84-5.75-1.44-8.39-2.83.69,1.51,1.47,3,2.13,4.54-3.06-.45-5.4-2.54-7.93-4.1.61,1.51,1.3,2.98,1.95,4.5-3.44-.32-5.9-2.89-8.7-4.57.99,1.53,2,3.04,2.95,4.61-3.49.37-5.72-2.53-8.25-4.37.72,1.47,1.48,2.91,2.18,4.41-3.52-.25-5.91-2.97-8.11-5.4.64,1.62,1.3,3.22,1.86,4.89-3.2-.63-5.21-3.27-7.48-5.32.36,1.36.72,2.74,1.06,4.12-2.43-1.1-4.52-2.76-6.47-4.53.47,2.08.86,4.2,1.56,6.23,1.39,1.26,3.43,1.42,5.18,1.96,16.9,3.64,34.99,2.14,50.88-4.8,15.66-6.29,28.7-17.78,39.09-30.89,4.96-7.06,10.23-14.17,12.82-22.5-4.6-.27-9.09-1.23-13.61-2.05M408.6,369.72c-.4,5.75-.23,11.61,1.25,17.21,1.08,3.95,2.68,8.38,6.69,10.21,6.82,3.41,14.14,5.95,21.72,7-.44-8.46-.13-16.96-.87-25.39-7.36-1.82-14.61-4.11-21.62-6.99-2.3-.96-4.7-1.7-7.17-2.04M501.59,378.1c.38,7.42.76,14.84,1.16,22.27,5.83-1.2,11.49-3.33,16.56-6.47,2.2-1.39,4.43-3.24,4.96-5.93,1.22-5.71,1.26-11.6,2.28-17.35-8.3,2.57-16.48,5.54-24.96,7.48M439.93,379.35c-.27,8.38.04,16.77.18,25.16,10.17,1.56,20.52,2.13,30.81,1.52.17-7.97-1.45-15.82-1.95-23.75-9.73-.47-19.45-1.13-29.04-2.93M471.27,382.1c.67,7.79,1.24,15.6,1.46,23.42,9.5-.21,18.88-2.18,28.11-4.36-.53-7.46-1.24-14.9-2.18-22.31-9.09,1.39-18.18,2.93-27.39,3.25M530.99,407.19c.74,10.16,4.38,21.09-.69,30.71-3.82,8.39-12.15,13.42-20.51,16.44-16.93,6-36.33,6.05-52.72-1.67-13.13-5.97-23.78-16.2-32.9-27.15-6.94-9.48-13.33-19.54-17.36-30.64-1.51-3.85-1.72-8.04-3.04-11.95-.43,13.31,5.21,25.84,12.09,36.91,8.62,13.31,19.53,25.59,33.33,33.67,15.57,9.07,34.58,12.6,52.25,8.62,12.5-2.76,25.11-8.74,32.33-19.73,5.29-8.24,4.02-18.55,2.3-27.67-2.17-11.16-3.33-22.46-4.04-33.8-2.51,8.47-1.47,17.55-1.04,26.26M87.1,400.69c-4.83,1.67-9.65,4.95-11.19,10.07,4.88,1.13,7.91-3.58,12.02-5.16,10.76-4.74,23.59-1.47,32.46,5.71,6.07,5.25,10.81,12.17,13.05,19.91.8,4.03,1.35,8.73-1.04,12.35-2.08.6-3.33-2.33-5.05-3.24,2.53,3.01,5.36,5.77,7.42,9.15,4.05-6,5.46-13.83,3.24-20.77-3.03-9.5-9.73-17.49-17.75-23.25-9.68-6.14-22.16-8.56-33.16-4.77M246.42,404.26c11.32,57.29,22.63,114.57,34.26,171.8.81,4.2,1.89,8.74,5.2,11.73,4.75,4.16,11.33,6.9,17.69,5.34,18.85-3.66,37.44-8.52,56.21-12.59,20.06-4.59,40.18-8.93,60.18-13.79,3.98-1.24,8.57-1.49,11.71-4.54-3.82.11-7.55.99-11.27,1.76-21.54,4.83-43.05,9.83-64.65,14.36-16.86,3.28-33.56,7.28-50.43,10.51-2.48.39-5.19,1.25-7.57,0-5.1-2.42-10.47-6.04-11.86-11.88-2.73-9.97-3.99-20.27-6.07-30.38-9.06-44.85-17.81-89.76-27.24-134.52-.39-1.56-.67-3.16-1.39-4.59-1.42-1.31-3.14-2.22-4.77-3.21M52.66,416.29c-11.4,4.22-22.29,10.41-30.75,19.25-10.61,10.17-17.59,24.71-16.87,39.59.28,7.25,3.3,14.7,9.11,19.25.32-1.78.64-3.55.97-5.31-5.46-4.62-6.79-12.19-6.45-18.98.2-10.9,6.02-20.77,13.03-28.75,10.29-11.01,23.83-18.86,38.39-22.65,11.88-3.23,24.53-2.82,36.39.23-4.98-4.26-11.69-5.9-17.94-7.36-8.73.64-17.59,1.66-25.88,4.73M476.84,425.44c.05.3.15.88.21,1.18,5.95,4.26,12.45,8.73,15.5,15.66-2.4-1.21-4.23-3.21-6.29-4.87-7.27-5.94-15.62-11.03-24.94-12.8-9.2-1.23-18.56.98-26.85,4.92,2.18,3.88,5.69,6.75,9,9.65,8.47,6.73,18.43,11.75,29.09,13.81,12.69,2.68,26.13,1.14,38.11-3.7,3.76-1.69,7.73-3.38,10.63-6.4-.41-2.37-1.94-4.31-3.3-6.19-5.46-7.21-13.38-12.92-22.44-14.35-6.32-1.09-13.28-.54-18.72,3.09M116.58,436.02c4.88,10.86,11.89,20.59,16.69,31.49,4.82,11.17,4.13,24.02.17,35.34-3.25,10.14-9.26,20.43-19.24,25.13-4.61,2.34-10.03,1.58-14.48-.74-.48,1.61-.97,3.22-1.43,4.85,6.08,2.3,13.12,2.97,19.15.13,8.38-4.01,14.37-11.72,18.21-20,4.95-9.84,7.25-21.07,6.12-32.05-1.16-12.25-6.76-23.59-13.86-33.45-3.46-3.86-6.96-7.85-11.33-10.7M125.77,438.42q.56.53,0,0M20.67,484.23c-3.7,9.83-4.47,21.5.88,30.9,3.15,5.34,7.96,10.71,14.53,11.26.06-2.38.18-4.74.31-7.1-2.64-.73-5.37-1.65-7.23-3.77-4.79-5.16-6.79-12.45-6.54-19.37.36-11.74,5.45-22.97,13-31.84-7.21,4.58-11.71,12.23-14.95,19.92M41.04,516.55c-.62,6.83-1.25,14.38,2.61,20.45,4.76,8.22,14.57,12.76,23.92,11.99,14.83-1.04,27.59-13.96,29.15-28.61-5.09,5.51-8.01,14.32-16.18,16.18.2-7.57,3.88-14.46,7.35-21.01,4.52-7.38,9.53-14.91,16.93-19.7-.05,2.47-.17,4.95-.1,7.44,5.04.07,8.31-4.26,11.58-7.45-1.36-.86-2.85-1.4-4.4-1.79.13-.52.38-1.57.5-2.09-1.14-.42-2.78-2.41-3.25-.27-1.07-2.21-3.59-.79-5.27-.19-6.91,3.32-12.36,9.06-16.66,15.3-6.59,10.21-12.33,21.83-11.99,34.28-8.37,4.29-19.48,2.07-25.53-5.12-3.67-5.11-4.65-11.7-4.27-17.85.94-10.97,5.49-21.14,10.1-30.99-7.73,7.92-12.9,18.47-14.49,29.43M451.91,545.58c-2.71,2.25-5.92,4.18-7.54,7.44,2.91-3.39,6.82-5.45,10.23-8.23.43.23,1.28.67,1.71.9,1.82-1.83,3.89-3.38,6.02-4.84-.01.68-.03,2.04-.04,2.72,2.07-1.78,4.06-3.7,6.49-5-.69,1.68-1.51,3.31-2.19,5,2.58-2.33,4.72-5.23,7.88-6.84-.72,1.63-1.55,3.21-2.23,4.87,2.53-2.19,4.43-5.17,7.6-6.52-.97,2.22-2.34,4.24-3.34,6.45,3.62-1.97,4.91-6.81,9.27-7.69-1.33,2.29-2.98,4.37-4.22,6.72,3.96-2.13,6.07-7.28,10.99-7.59-1.96,2.4-4.42,4.41-5.96,7.15,4.14-2.04,6.58-6.86,11.42-7.53-1.64,2.42-3.99,4.26-5.56,6.73,4.07-1.82,6.76-5.87,11.14-7.11-1.34,2.94-4.37,4.5-6.17,7.1,4.31-1.17,6.67-5.99,11.34-6.3-1.6,2.81-4.79,4.19-6.42,6.98,4.11-1.58,6.77-6.2,11.48-6.16-1.94,2.35-4.42,4.16-6.42,6.45,4.3-.75,6.61-5.9,11.26-5.36-2,2.25-4.5,4-6.37,6.37,4.18-.93,6.83-5.23,11.34-5.16-1.89,2.54-4.91,3.9-6.77,6.45,4.09-.71,6.77-4.77,11.07-4.86-1.71,2.77-5.01,3.95-6.78,6.66,4.17-.89,7.21-5.16,11.76-4.48-2.03,2.77-5.76,3.58-7.58,6.55,4.11-.88,7.14-4.68,11.53-4.5-1.98,2.77-5.7,3.57-7.49,6.53,4.01-.95,7.01-4.62,11.37-4.33-1.83,2.85-5.56,3.51-7.48,6.28,3.66-.94,6.61-3.67,10.41-4.23-.06,3.93-6.15,3.23-6.99,6.7,3.75-1.1,6.89-4.16,11-3.84-2.07,2.71-5.61,3.65-7.67,6.35,3.94-.33,7-5.4,10.99-3.24-2.42,2.12-5.85,3.1-7.57,5.95,3.79-.63,7.27-5.59,11.09-2.94-2.64,1.84-5.58,3.18-8.16,5.09,3.31-.2,6.14-2.06,9.2-3.11.72.42,1.38.94,1.98,1.56-2.82,1.62-6.29,2.46-8.35,5.14,4.09-.44,7.79-4.62,11.92-2.68-2.43,2.23-6.02,2.77-8.07,5.43,3.25-.6,6.14-2.42,9.38-3.02.45.33,1.35.99,1.81,1.31-2.8,1.87-6.8,2.22-8.72,5.18,3.41-.6,6.46-2.43,9.85-3.12.49.31,1.48.94,1.97,1.25-2.94,1.7-6.3,2.69-8.92,4.92,3.05.03,5.69-1.58,8.49-2.53,1.26-.85,2.73.09,3.1,1.43-2.81,1.69-6.77,2-8.62,4.94,2.84-.79,5.51-2.06,8.35-2.86,1.21-.41,2.28-.09,3.2.94-2.73,1.95-6.78,2.2-8.66,5.13,3.15-.9,6.04-2.62,9.29-3.2.43.32,1.28.96,1.71,1.28-2.66,2.13-6.23,2.68-8.82,4.93,3.74-.39,7.98-4.59,11.23-1.06-2.82,1.26-6.01,1.85-8.47,3.81,3.31-.57,6.59-2.44,10-1.63.02.39.06,1.17.07,1.56-3.21.78-6.53,1.56-9.11,3.76,3.28-.98,6.53-2.32,10.01-2.4.43.48,1.28,1.43,1.71,1.91-2.91.84-5.93,1.43-8.57,2.97,3.05-.19,6.01-1.16,9.08-1.26.36.56,1.07,1.69,1.43,2.26-3.17.86-6.44,1.49-9.43,2.91,3.68.15,7.47-1.7,11.04-.7l.28,1.8c-2.85.93-5.99,1.23-8.5,3.01,2.78-.21,5.49-.96,8.27-1.18,1.45-.08,2.25.63,2.39,2.15-3.21,1.12-6.64,1.8-9.49,3.74,3.35-.56,6.63-1.58,10.03-1.83.5.56,1.48,1.68,1.98,2.23-3.07,1.18-6.28,2.09-9.06,3.88,3.5-.36,6.89-2.11,10.46-1.22-.94,3.58-5.63,2.49-8.29,4.11,3.21-.32,6.4-1.92,9.65-.94.26,1.37.54,2.75.84,4.14,2.71-.76,5.21-2.06,7.73-3.28-6.36-17.3-15.73-33.42-26.99-47.97-6.2-7.76-13.23-14.87-21.03-21.01-15.51-11.07-34.78-18.13-54.02-15.61-16.99,2.34-33.88,7.97-47.77,18.24M176.12,563.67c-23.9,13.4-44.45,32.1-62.42,52.64-12.73,14.95-23.47,31.93-29.24,50.81-3.85,13.11-5.1,27.8.43,40.63,3.23,7.18,8.14,14.11,15.45,17.55-7.48-7.72-10.59-18.64-10.96-29.16-.61-16.16,4.45-32.03,11.98-46.17,12.68-25.24,32.84-45.79,54.55-63.45,8.75-6.81,17.96-13.14,27.9-18.11,9.21-4.84,19.16-9.18,29.74-9.31,4.67-.09,9.02,1.73,13.15,3.7-3.75-5.45-9.19-10.39-16.12-10.76-12.54-.75-23.78,5.94-34.46,11.63M693.54,560.18c-16.53,7.67-30.39,20.19-41.66,34.36-9.35,11.31-16.17,24.91-18.16,39.55,5.82-12.55,12.28-24.93,20.98-35.77,10.84-13.61,24.16-25.82,40.38-32.6,8.7-3.51,18.47-5.94,27.77-3.52-5.43,3.82-11.67,6.33-17.04,10.27-25.92,17.51-45.03,43.39-58.8,71.14-2.28,4.55-3.78,9.45-6.11,13.96-1.91,2.44-4.75,3.89-7.09,5.87-6.23,4.7-11.62,10.37-17.22,15.78-11.09,10.88-20.3,24.17-24.41,39.28-2.59-3.6-3.43-8.06-4.74-12.21-3.59-12.48-3.85-25.56-3.14-38.43-3.85,8.51-4.33,18.11-4,27.32.99,14.48,5.21,28.93,12.89,41.29.95-16.22,8.14-31.69,19.01-43.64,9.13-10.18,18.81-20,29.69-28.3,2.57-2.33,3.7-5.72,5.3-8.69,7.17-14.89,15.51-29.28,25.83-42.21,15.02-19.19,33.84-36.4,56.95-45.08,9.66-3.7,20.99-5.05,30.58-.41-5.36-7.76-14.29-12.39-23.27-14.59-14.78-3.14-30.32.08-43.74,6.63M186.84,571.47c-16,8.2-30.57,19.05-43.5,31.51-14.76,13.19-27.08,29-36.71,46.26-7.75,15.11-13.74,31.78-12.84,49,.49,9.47,3.17,19.63,10.48,26.18,5.94,5.39,14.85,5.76,22.26,3.73,8.72-2.62,16.77-7.4,23.51-13.5,7.15-6.53,14.16-13.51,19.19-21.84.08-4.79-.98-9.53-2.53-14.03-3.4,8.77-8.67,16.69-14.52,24-6.33,7.5-14.17,14.02-23.35,17.67-7.82,3.06-17.99,1.65-23.31-5.28-5.31-7.52-6.24-17.16-5.71-26.1,1.36-18.51,8.9-36.11,19.24-51.34,9.94-15.62,22.91-29.11,36.94-41.09,14.07-11.73,29.58-22.22,47.03-28.14,6.65-2.25,15.02-3.6,20.84,1.32,4.07,3.17,5.29,8.33,7.72,12.61.28-4.34-1.09-8.6-2.91-12.48-2.38-4.83-8.15-6.45-13.1-6.99-10.23-.47-19.87,3.84-28.73,8.51M733.54,571.2c-25.11,8.51-44.59,28-60.31,48.67-8.25,11.38-15.31,23.6-21.87,36.02-2.42,4.24-3.42,9.52-7.43,12.66-15.21,11.97-30.14,25.24-39.56,42.43-4.4,8.65-8.02,18.27-7.08,28.14.77,6.64,6.44,11.28,12.06,14.09-5.53-4.28-9.46-10.9-8.92-18.07,1.06-12.86,8.06-24.31,15.82-34.26,9.03-10.91,19.38-20.66,30.37-29.57,3.15-2.48,4.26-6.49,6.06-9.89,11.54-22.66,25.52-44.42,43.97-62.11,10.67-9.82,22.47-18.93,36.32-23.72,9.77-3.36,20.71-5.56,30.66-1.61-8.19-7.18-20.46-6.11-30.09-2.78M217.22,588.81c2.42.14,4.86-.05,7.27.25,6.41,1.09,12.05,4.54,18.28,6.24-4.91-8.82-16.97-10.58-25.55-6.49M732.53,587.31c2.34,1.64,4.94,2.85,7.53,4.07,8.01,3.73,15.66,8.22,23.72,11.85-.85-1.25-2.06-2.16-3.39-2.79-9.17-4.63-18.4-9.13-27.86-13.13M215.35,607.99c-7.84,7.47-13.47,17.41-15.11,28.17-.52,5.05.33,10.63,3.63,14.65,4.29,4.88,11.53,5.89,17.55,4.23,2.15-.73,4.96-1.48,5.3-4.15-4.07.3-8.08,2.3-12.18,1.15-4.41-.8-7.8-4.72-8.47-9.06-.88-5.96.56-12,2.69-17.54,4.13-9.95,11.52-19.23,21.92-22.97,4.1-1.47,9.62-1.95,12.52,2.02,3.34,3.07,3.76,8.2,7.21,11.06-.12-4.7-.95-9.64-3.72-13.55-2.97-3.41-7.8-4.71-12.19-4.14-7.32,1.04-13.95,4.98-19.15,10.13M188.78,614.21c-1.57,8.3,1.49,17.12,7.14,23.26.34-3.45,1.74-6.66,2.35-10.02-2.16-3.29-5.37-6.17-5.93-10.25-.8-4.88,1.07-9.55,2.21-14.19-3.34,2.76-5.03,7.02-5.77,11.2M368.8,611.47l-.05.56c2.82.01,5.63-.04,8.45-.04-1.52,5.58-7.97,5.04-12.51,5.44l.08.6c2.92-.07,5.84-.03,8.77.09-.87,1.75-1.65,3.57-2.84,5.13-3.33,1.18-6.93,1.01-10.4,1.29,2.91.88,6.25.23,8.93,1.72-2.44,3.08-7.37.52-10.85,1.35,2.62,1.2,5.54,1.05,8.34,1.45l.28,1.06c-2.6,3.03-7.2.42-10.69,1.31,2.56,1.49,5.6,1.49,8.45,2.01-.48.87-1,1.72-1.57,2.55-2.97.15-5.91-.49-8.87-.59,1.88,2.41,6.65.55,7.33,3.7-3.05,2.04-6.88.06-10.26.27,2.03,1.88,4.9,1.95,7.42,2.77-.12.44-.36,1.31-.48,1.75-3.01.48-6.01-.3-8.99-.53,2.03,1.88,5,1.75,7.41,2.91-2.62,3.62-7.67.3-11.27.15,2.24,1.7,5,2.34,7.62,3.23.08.39.24,1.17.32,1.56-3.1.84-6.08-.85-9.14-1.07,2.01,1.66,4.64,2.36,6.56,4.17-3.41.66-6.54-1.05-9.76-1.82,1.91,2.22,5.08,2.72,6.97,4.99-3.41.67-6.51-1.12-9.63-2.14,1.78,1.52,3.85,2.66,5.59,4.23-2.61-.33-5.11-1.23-7.7-1.63,1.82,2.06,5.85,2.04,6.24,5.15-3.26-.07-6.24-1.5-9.4-2.09,1.5,2,5.14,2.14,5.36,4.97-3.01.1-5.6-1.52-8.35-2.46,1.84,1.67,3.93,3.05,5.7,4.83-3.15,1.09-5.69-1.57-8.59-2.27,1.7,1.85,3.91,3.2,5.37,5.3-3.32.88-5.98-1.84-9.1-2.38,1.77,1.75,4.74,2.6,5.21,5.35-1.89-.27-3.54-1.17-5.04-2.27.81,1.18,1.6,2.37,2.29,3.66-2.36-.87-4.15-2.7-6.35-3.82,1.33,2.03,3.45,3.65,3.93,6.15-3.5.33-5.38-2.9-8.26-4.12,1.24,2.3,3.1,4.18,4.45,6.42-3.58.29-5.58-3.03-8.47-4.47.98,2.39,2.82,4.24,4.32,6.31-3.99.39-6.02-3.32-9.1-5.04,1.22,2.38,3.1,4.31,4.62,6.51-3.46-.11-5.46-3.12-8-4.95.83,2.2,2.36,4.02,3.64,5.97-3.97.22-5.55-4.14-8.58-5.88.86,2.44,2.53,4.45,3.75,6.72-4.09-.36-5.3-4.77-8.37-6.74,1.02,2.64,2.68,4.96,3.95,7.49-4.58-.7-5.58-5.95-9.07-8.25,1.05,2.86,2.81,5.38,4.1,8.14-4.94-.84-5.5-6.42-8.62-9.38.66,2.95,1.8,5.78,3.31,8.41-.59-.11-1.77-.34-2.36-.45-2.53-2.84-2.73-6.95-5.29-9.7.28,3.24,1.39,6.33,2.57,9.35-5.14-1.66-4.4-8-7.59-11.4.4,3.17,1.4,6.21,2.04,9.34-4.97-2.13-4-8.42-6.8-12.24.09,3.24.78,6.43,1.44,9.6-5.22-1.73-3.2-8.32-5.82-12.01-.27,2.93.04,5.87.23,8.8-4.9-2.04-2.35-8.45-5.17-11.96-.24,2.97.23,5.94.22,8.92-4.78-2.97-2.18-9.34-4.77-13.51-.26,3.04-.13,6.1-.18,9.16-4.87-2.2-3.09-8.41-3.62-12.65h-1.18c.02,2.9-.25,5.83-1.28,8.57-3.74-3.55-.61-9.02-2.62-13.12-.74,2.76-1.12,5.6-1.69,8.41-3.43-3.28-1.46-8.14-1.19-12.2-2.57,1.39-2.09,4.84-2.99,7.23-4.1-2.72.08-8.07-1.59-11.23-1.52,2.07-1.21,5.65-4.05,6.47-.01-3.39.82-6.68,1.27-10.01-1.75,1.8-2.39,4.42-4.4,6-.36-3.35,1.13-6.43,1.9-9.6-2.55,1.48-2.49,5.69-5.68,6.14.17-3.38,2.61-5.96,3.33-9.17-1.94,1.27-3.41,3.09-4.85,4.89-.67-.02-1.99-.06-2.65-.09,1.75-2.75,4.18-5.01,5.89-7.79-3.48,2.04-6.35,5.31-7.66,9.16,5.22,4.54,8.44,10.78,12.84,16.04,10.86,13.84,23.81,27.13,40.67,33.31,14.15,5.18,30.64,4.64,43.99-2.6,14.82-7.34,26.6-19.42,36.85-32.16,11.14-15.06,19.98-31.81,26.39-49.4-3.4,4.67-9.27,5.68-14.65,6.17M716.58,613.13c8.59,5.01,17.75,8.95,26.65,13.37,3.77,1.57,7.17,4.26,11.35,4.66-1.42-.97-2.92-1.81-4.46-2.53-11.13-5.27-22.12-10.9-33.54-15.5M584.25,632.86c-1.86,3.07-1.77,6.76-2.44,10.19,7.12-9.17,15.98-17.92,27.5-21.02,3.94-1.26,8.09-.26,12.08-.67,1.53-1.26,2.79-2.8,4.09-4.29-3.57-2.25-7.81-3.32-12.01-3.02-12.03,1.05-23.21,8.38-29.22,18.81M164.57,618.1c8.82,9.36,18.23,18.87,22.95,31.08,1.63,3.19,3.1,6.46,4.28,9.85,2.48-2.21,5.07-4.34,7.08-7-.66-3.28-1.86-6.43-2.43-9.72-.94.82-1.89,1.65-2.84,2.46-7.21-11.12-16.5-21.57-29.04-26.67M620.33,627.97c-7.83,5.57-15.16,12.71-17.79,22.25,6-7.4,13.43-14.13,22.69-17.07.57,4.56.71,9.62,3.98,13.23-.38-9.26.54-18.52,2.73-27.51-4.73,1.81-7.47,6.4-11.61,9.1M151.53,628.17c10.87,10.01,22.58,20.57,27.25,35.06-.47,2.95-1.5,5.82-2.96,8.43-7.29-12.71-18.05-24.46-32.51-28.65,1.55,1.6,3.36,2.92,5.15,4.25,6.49,4.82,11.74,11.12,16.18,17.84,4.6,6.88,6.97,14.97,8.29,23.07,5.61-7.26,9.73-15.51,14.04-23.56,2.76-4.66-.31-9.94-1.91-14.45-.69,1.69-1.49,3.34-2.46,4.9-4.71-6.79-9.78-13.47-16.23-18.72-4.57-3.33-9.59-6.07-14.84-8.17M721.45,633.25c4.21,2.94,9.03,4.84,13.54,7.28,3.49,1.64,6.79,3.83,10.59,4.74-3-2.57-6.76-3.97-10.21-5.78-4.59-2.19-9.13-4.53-13.92-6.24M568.47,668.17c.35,7.9,2.09,16.32,7.34,22.5.49-6.97-2.73-13.5-2.89-20.43-1.02-10.21,1.4-20.26,3.5-30.16-5.99,7.96-8.06,18.29-7.95,28.09M701.43,655.3c6.78,3.71,13.85,6.85,20.83,10.15,2.38,1.11,4.75,2.34,7.37,2.85-3.43-2.63-7.65-3.88-11.47-5.78-5.64-2.28-10.9-5.45-16.73-7.22M672.6,656.15c15.59,8.36,31.59,16.09,47.96,22.81-.52-1.75-2.31-2.31-3.79-2.95-14.94-6.14-29.3-13.6-44.17-19.86M661.51,683.42c10.2,5.12,20.58,9.9,30.92,14.73,2.67,1.22,5.28,2.73,8.23,3.2-1.91-1.7-4.27-2.7-6.56-3.72-10.83-4.81-21.5-10.02-32.59-14.21M652.49,696.39c8.56,4.64,17.54,8.44,26.4,12.44,2.9,1.29,5.7,2.92,8.86,3.52-1.87-2.23-4.79-2.93-7.29-4.13-9.31-3.99-18.4-8.51-27.97-11.83M628.53,711.34c7.22,4.36,15.15,7.4,22.73,11.08,5.77,2.2,11.07,5.95,17.3,6.72-13.13-6.37-26.63-12.02-40.03-17.8M619.52,728.13c4.86,3.03,10.28,5.03,15.44,7.52,4.86,1.91,9.5,4.63,14.69,5.56-3.81-2.51-8.23-3.82-12.33-5.73-5.98-2.36-11.71-5.32-17.8-7.35Z"/>
      <path class="cls-1" d="M126.32,78.93c26.41-14.95,57.06-21.18,87.2-21.44,15.93.25,32.19,1.6,47.15,7.48,7.62,3.01,14.89,7.59,19.72,14.32,3.68,5.26,3.65,11.87,5.07,17.89,1.29,5.52.84,11.66-2.39,16.47-6.08,9.77-16.41,15.68-26.51,20.55-19.44,8.57-40.58,12.27-61.58,14.59-27.3,3.53-54.91,5.75-81.69,12.43,1.8,1.64,3.72,3.14,5.8,4.4,12.7,7.47,26.91,11.98,41.31,14.83,4.35,1.23,8.95,1.06,13.26,2.44-3.25-.06-6.48-.34-9.71-.67-.02,1.99-.05,3.98.15,5.96,3.11,1.57,6.8,1.07,10.18,1.24v.55c-6.37.24-12.7-.64-18.99-1.42-12.53-2.04-25.11-4.86-36.52-10.58-6.32-3.54-12.73-7.09-18.07-12.05-.86-1-2.2-.12-3.21.08-11.78,3.83-23.24,8.77-33.71,15.44-13.04,9.03-25.74,19.88-32.22,34.74-1.38,3.24-2.95,6.95-1.46,10.45,3.51,9.06,11.36,15.55,19.43,20.5,18.8,11.29,40.66,15.71,62.05,19.02,16.72,2.84,33.68,3.94,50.61,4.49-1.13,1.72-1.22,3.77-1.2,5.78,1.92,0,3.85-.01,5.77.13-7.53,2.13-15.41,2.7-23.17,3.43-17.67,1.67-35.52.93-53.06-1.73-18.91-3.01-38.26-8.48-53.38-20.73-8.06-6.4-13.58-16.1-14.2-26.44-.19-7.32-1.74-14.64-.61-21.95.55-4.75,2.41-9.21,4.73-13.36,7.15-13.32,19.05-23.47,31.9-31.1,8.14-4.42,16.25-9.03,25.08-11.97,2.41-.98,5.04-1.5,7.26-2.91-1.9-10.74-4.51-22.05-.76-32.73,6.1-16.95,20.24-29.74,35.77-38.13M201.13,63.3c.36,2.1.74,4.21,1.12,6.31,2.71-.19,5.42-.3,8.14-.42-.19-2-.35-4-.42-6.01-2.94-.31-5.9-.08-8.84.12M216.57,63.01c.28,2.1.55,4.2.81,6.3,2.84.1,5.68.2,8.53.29-.27-2.11-.55-4.22-.74-6.34-2.87-.25-5.74-.3-8.6-.25M185.73,64.72c.35,2.11.67,4.22.98,6.34,2.88-.26,5.75-.63,8.6-1.1-.69-1.98-.12-4.75-1.78-6.15-2.62.16-5.2.61-7.8.91M231.61,63.8c.42,2.1.82,4.21,1.19,6.33,2.67.52,5.34.97,8.02,1.4-.18-2.27-.42-4.52-.72-6.77-2.85-.19-5.67-.59-8.49-.96M170.68,67.82c.52,2.01,1.04,4.03,1.58,6.04,2.6-.53,5.24-.96,7.79-1.75-.11-2.03-.45-4.03-.73-6.03-2.93.35-5.82.89-8.64,1.74M246.77,66.22c.17,2.12.32,4.24.41,6.37,2.59.71,5.2,1.37,7.83,2.01-.13-2.13-.28-4.25-.41-6.38-2.59-.75-5.2-1.42-7.83-2M155.72,72.07c.65,1.91,1.19,3.84,1.7,5.79,2.67-.74,5.32-1.6,8-2.32-.35-2.06-.92-4.07-1.57-6.04-2.73.81-5.46,1.6-8.13,2.57M260.77,70.72c.23,2.08.46,4.15.69,6.23,2.35,1.17,4.68,2.38,7.04,3.54-.16-2.04-.32-4.07-.43-6.1-2.27-1.53-4.76-2.68-7.3-3.67M141.55,77.31c.56,1.99,1.18,3.96,1.86,5.91,2.65-1.06,5.31-2.1,8-3.06-.62-2.05-1.23-4.09-1.84-6.14-2.74.93-5.41,2.05-8.02,3.29M163.71,81.21c-19.89,5.88-39.41,15.06-54.03,30.11-7.31,8.02-13.29,17.89-14.57,28.84,1.66,2.34,3.55,4.53,4.55,7.27,5.38-1.55,10.77-3.04,16.26-4.12,31.94-8.21,65.17-8.43,97.53-14.15,17.88-3.57,36.29-7.96,51.35-18.74,5.26-4.34,11.34-9.1,12.76-16.14-3.86-6.36-11.23-9.45-17.74-12.43-13.86-4.95-28.59-7.34-43.3-7.38-17.79-.18-35.68,1.83-52.81,6.74M273.58,78.07c-.24,3.71.41,7.96,4.28,9.59.72-3.86-1.78-7.01-4.28-9.59M127.47,84.1c.74,1.98,1.46,3.96,2.18,5.95,2.48-1.35,4.98-2.66,7.53-3.89-.62-2.03-1.27-4.06-1.92-6.08-2.86.77-5.36,2.38-7.79,4.02M115.24,92.3c.6,2.04,1.26,4.06,2.02,6.05,2.12-1.81,5.15-2.85,6.59-5.28-.46-1.93-1.27-3.75-2.05-5.56-2.19,1.6-4.35,3.24-6.56,4.79M104.2,102.23c.52,2.03,1.41,3.94,2.13,5.91,2.31-1.76,4.48-3.75,6.19-6.1-.36-2.02-1.37-3.84-2.13-5.72-2.12,1.9-4.44,3.63-6.19,5.91M277.54,106.07c.29,1.9,1.15,3.64,1.85,5.42,1.91-3.23,3.01-6.87,1.74-10.56-1.63,1.3-3.34,2.96-3.59,5.14M96.11,115.14c.45,1.81,1.13,3.56,1.72,5.33,1.75-2.31,3.69-4.61,4.68-7.37-.5-1.94-1.38-3.74-2.16-5.57-1.68,2.34-3.71,4.71-4.24,7.61M267.68,115.28c.31,1.94,1.13,3.75,1.82,5.58,2.01-1.35,3.81-2.97,5.5-4.69-.58-2.02-1.09-4.06-1.59-6.1-2.04,1.56-4.42,2.94-5.73,5.21M254.9,122.22c.47,2.19.99,4.38,1.52,6.56,2.4-1.27,4.8-2.57,7.22-3.81-.4-2.2-.82-4.39-1.24-6.58-2.45,1.38-4.91,2.74-7.5,3.83M93.27,121.04c-1.26,3.99-1.33,8.22,0,12.21,1.7-3.63,2.83-8.92,0-12.21M240.98,127.92c.51,2,.96,4.02,1.41,6.04,2.57-.81,5.1-1.77,7.59-2.83-.32-2-.68-3.99-1.01-5.99-2.76.62-5.4,1.66-7.99,2.78M226.61,131.59c.3,2.14.72,4.27,1.19,6.38,2.67-.58,5.33-1.24,8.02-1.81-.38-2.17-.8-4.33-1.26-6.47-2.64.68-5.28,1.35-7.95,1.9M211.54,134.59c.32,2.19.7,4.36,1.13,6.53,2.85-.39,5.68-.91,8.48-1.59-.44-2.04-.81-4.07-1.11-6.12-2.84.37-5.67.79-8.5,1.18M196.51,136.77c.23,2.13.54,4.26.87,6.38,2.86-.31,5.71-.65,8.57-.91-.47-2.08-.04-4.69-1.5-6.37-2.66.24-5.28.71-7.94.9M180.7,138.69c.52,2.14,1.09,4.27,1.8,6.36,2.63-.42,5.29-.73,7.94-1-.31-1.91-.59-3.83-1.12-5.68-2.68-1.08-5.79.28-8.62.32M165.54,140.5c.34,2.02.66,4.04.92,6.08,2.94-.07,5.87-.46,8.75-1.07-.64-1.87-.32-4.25-1.73-5.76-2.66.08-5.3.49-7.94.75M150.13,142.23c.35,2.1,0,4.62,1.4,6.36,2.66-.07,5.31-.45,7.96-.72-.22-2.01-.4-4.02-.82-5.99-2.71-.85-5.72.37-8.54.35M134.68,144.56c.39,2.13.8,4.26,1.21,6.39,2.82-.42,5.63-.9,8.46-1.33-.36-2.09-.73-4.17-1.13-6.25-2.85.36-5.7.78-8.54,1.19M119.66,147.6c.45,2.12.97,4.23,1.56,6.32,2.68-.61,5.35-1.23,8.01-1.9-.37-1.97-.7-3.96-1-5.94-2.9.22-5.75.83-8.57,1.52M106.34,151.33c-.78,1.58.97,3.16,1.57,4.58,2.14,1.14,4.57-.3,6.75-.67-.67-1.91-1.31-3.83-1.95-5.75-2.14.58-4.3,1.07-6.37,1.84M94.84,154.16c.87,2.16,1.68,4.33,2.52,6.5,1.39-.4,2.78-.79,4.17-1.17-.74-2.12-1.67-4.16-2.52-6.22-1.4.28-2.78.59-4.17.89M82.03,159.2c.29,2.02.62,4.05.91,6.08,3.02-.83,5.94-1.96,8.87-3.04-.66-1.98-1.26-3.98-1.81-5.98-2.73.76-5.36,1.84-7.97,2.94M67.87,166.19c.5,1.93,1.19,3.82,1.79,5.73,2.5-1.34,5.02-2.62,7.56-3.89-.62-1.96-1.22-3.92-1.83-5.88-2.58,1.17-5.4,2.08-7.52,4.04M102.82,164.78c2.4,2.61,5.07,5.05,8.33,6.54-.21-2.7.68-5.87-.85-8.25-2.54-.68-5.12.88-7.48,1.71M115.89,167.92c-.24,2.03-.77,4.06-.63,6.13,2.61,1.84,5.55,3.12,8.45,4.41-.08-2.39-.22-4.78-.36-7.17-2.39-1.33-4.87-2.49-7.46-3.37M55,174.16c.4,2.04,1.06,4.02,1.62,6.02,2.2-1.61,4.4-3.23,6.81-4.5-.31-2.15-.94-4.24-1.7-6.27-2.26,1.49-5.24,2.39-6.73,4.75M127.27,172.9c.08,2.37.21,4.73.35,7.1,2.71.89,5.41,1.85,8.15,2.65-.45-2.21.09-4.8-1.06-6.77-2.39-1.21-4.95-2.03-7.44-2.98M139.12,177.05c.08,2.26.23,4.53.57,6.78,3.2.78,6.41,1.52,9.63,2.23-.26-2.19-.51-4.39-.89-6.56-3.12-.77-6.22-1.6-9.31-2.45M42.89,183.5c.17,2.01,1.59,3.68,2.4,5.49,1.91-1.6,3.81-3.19,5.79-4.7-.74-2.12-1.49-4.25-2.33-6.34-1.98,1.82-4.17,3.44-5.86,5.55M152.13,180.11c-.06,2.08-.08,4.17-.11,6.25,3.27,1.01,6.66,1.52,10.04,2.04-.06-2.13-.15-4.27-.23-6.4-3.26-.46-6.5-1.11-9.7-1.89M33.05,195.17c.54,1.79,1.28,3.52,1.91,5.29,1.71-1.79,3.27-3.7,4.93-5.52-.7-2.06-1.46-4.1-2.29-6.11-1.62,2.01-3.84,3.78-4.55,6.34M27.61,205.17c-.85,2.38-.45,4.9.03,7.3,1.39-2.01,2.44-4.23,3.59-6.38-.61-1.23-1.19-2.47-1.93-3.62-1.35-.39-1.19,1.92-1.69,2.7M28.59,234.07c-.07,3.37-.05,7.17,2.91,9.42,1.77-3.6-.92-6.67-2.91-9.42M35.93,249.13c1.55,2.23,3.63,4.11,6.12,5.23,0-1.89.84-3.94.06-5.73-1.57-1.62-3.32-3.06-4.91-4.65-.47,1.7-1.03,3.38-1.27,5.15M47.62,251.97c-.21,2.04-.5,4.09-.46,6.15,2.07,1.82,4.67,2.85,7.14,4.01.06-2.17.08-4.34,0-6.5-2.24-1.2-4.42-2.5-6.67-3.66M60.28,258.73c0,2.12.04,4.25.12,6.38,2.49,1,5,1.94,7.57,2.72,0-1.91.04-3.82-.09-5.72-2.07-1.89-5.06-2.35-7.6-3.38M74.01,263.64c.07,2.15.17,4.3.32,6.45,2.55.56,5.08,1.16,7.63,1.71-.31-2.07.69-4.6-.54-6.39-2.39-.88-4.93-1.24-7.41-1.77M88.3,267c.11,2.09.26,4.18.36,6.29,2.79.71,5.62,1.24,8.49,1.58-.07-2.2-.19-4.38-.4-6.56-2.83-.39-5.64-.86-8.45-1.31M103.24,269.2c.1,2.23.28,4.45.49,6.68,2.9.25,5.8.5,8.72.59-.11-2-.18-3.99-.25-5.99-2.99-.42-5.98-.84-8.96-1.28M118.15,270.72c.18,2.09.39,4.18.58,6.28,3.21.29,6.44.47,9.67.45-.15-1.99-.27-3.96-.33-5.94-3.31-.29-6.61-.57-9.92-.79M133.43,271.41c.06,2.03.14,4.06.18,6.09,3.44.12,6.89.07,10.34.02-.14-1.96-.29-3.91-.51-5.85-3.34.09-6.68-.03-10.01-.26M147.9,271.67c.03,1.92.09,3.86.19,5.79,3.95-.21,7.91-.52,11.85-1.02-.13-1.54-.24-3.08-.33-4.62-3.9-.25-7.81-.1-11.71-.15Z"/>
      <path class="cls-1" d="M613.28,69.9c20.9-8.57,43.82-10.85,66.25-10.63,17.68-.08,35.5,2.58,52.14,8.68,10.11,3.74,19.9,8.83,27.85,16.21,6.07,6.04,10.21,14.32,10.17,23-.14,6.1.69,12.55-1.94,18.27-3.94,9.41-12.11,16.29-20.88,21.08-19.86,11.15-42.88,14.45-65.21,16.72-23.32,1.86-46.77,1.55-70.12.5-24.6-.63-49.61-1.86-73.77,3.84-11.37,2.68-22.41,7.15-32.05,13.8-1.67,1.17-3.38,2.31-5.29,3.04,1.26-1.82,3.28-3.12,4.11-5.2-.57-2.53-1.59-4.92-2.35-7.38-1.69.98-3.28,2.12-4.91,3.17,3.7-6.07,10.13-9.6,16.19-12.9,14.4-7.85,30.7-11.38,46.87-13.11,24.04-2.47,48.18-.05,72.24.66,26.02.69,52.33.56,77.93-4.65,16.04-2.88,32.04-8.57,44.6-19.24,4.8-3.98,8.22-9.55,9.69-15.61-.21-4.7-3.04-8.78-6.12-12.13-9.48-10.87-22.9-17.47-36.49-21.61-21.39-7.22-44.2-9.03-66.65-8.46-10.58.32-21.12,1.69-31.68,2.11,2.29-1.08,4.85-1.25,7.27-1.96-.06-.65-.17-1.94-.23-2.59-4.37,1.34-8.94,2.01-13.19,3.68-.38.46-1.13,1.38-1.5,1.84-.99-.37-1.97-.75-2.93-1.13M664.98,61.6c-.02,1.46-.05,2.91-.08,4.37,3.42.11,6.85.13,10.28.02-.09-1.45-.14-2.89-.18-4.33-3.35-.06-6.69-.04-10.02-.06M649.87,62.47c-.11,1.35-.21,2.7-.31,4.05,3.57.09,7.15-.19,10.71-.52.03-1.38.07-2.75.13-4.13-3.53-.12-7.04.2-10.53.6M680.21,66.37c2.97.49,6.01.59,9.03.7,0-1.55,0-3.11.03-4.66-2.92-.29-5.84-.67-8.77-.57-1.2,1.13-.54,3.1-.29,4.53M633.34,65.13c.09.74.27,2.23.36,2.97,4.33-.31,8.65-.83,12.98-1.19-.05-1.33-.1-2.66-.15-4-4.45.38-8.83,1.26-13.19,2.22M694.36,62.78c-.01,1.73,0,3.45.05,5.18,2.73.26,5.44.64,8.15,1.07.14-1.65.26-3.3.36-4.95-2.83-.59-5.69-1.07-8.56-1.3M708.39,64.87c0,1.72.02,3.44.05,5.16,2.56.58,5.12,1.23,7.67,1.93.05-1.62.13-3.23.24-4.84-2.62-.9-5.27-1.67-7.96-2.25M721.74,68.26c-.15,1.63-.29,3.26-.42,4.9,2.38.88,4.79,1.7,7.24,2.41-.25-1.76,1.26-4.64-1.15-5.36-1.84-.82-3.77-1.35-5.67-1.95M733.85,72.98c-.07,1.61-.14,3.21-.19,4.82,2.22.85,4.43,1.77,6.71,2.52-.07-1.57.13-3.16-.22-4.7-1.88-1.34-4.12-1.99-6.3-2.64M745.36,78.8c-.13,1.41-.13,2.81-.02,4.22,1.63,1.32,3.46,2.37,5.29,3.4.2-1.32.48-2.64.53-3.97-1.3-1.99-3.79-2.65-5.8-3.65M754.83,86.14c-.69,3.62,2.21,5.93,4.65,8.02,1.23-3.5-1.14-7.23-4.65-8.02M762.13,95.84c.19,2.8,1.47,5.35,3.29,7.44-.54-2.58.07-6.78-3.29-7.44M760.62,129.21c3-2.11,4.14-5.74,4.86-9.16-2.26,2.64-4.7,5.52-4.86,9.16M752.78,137.21c2.59-1.55,5.28-3.67,5.52-6.93-3.67-.18-5.96,3.57-5.52,6.93M743.79,138.52c-.86,1.41-.18,3.15-.28,4.7,1.88-.92,3.72-1.93,5.56-2.94-.17-1.44-.33-2.88-.48-4.32-1.63.81-3.3,1.55-4.8,2.56M732.72,143.66c.03,1.5.1,3,.18,4.51,1.9-.64,3.75-1.42,5.61-2.2-.13-1.53-.27-3.06-.46-4.58-1.78.78-3.54,1.55-5.33,2.27M721.04,147.07c-.03,1.6-.03,3.21,0,4.81,2.01-.44,4.01-.97,6.03-1.47.07-1.69.12-3.37.19-5.05-2.08.58-4.15,1.17-6.22,1.71M708.02,150.21c-.05,1.65.11,3.3.29,4.94,2.3-.49,4.6-1.05,6.89-1.68-.12-1.65-.21-3.31-.3-4.97-2.29.51-4.89.38-6.88,1.71M695.39,151.62c-.17,1.63-.26,3.27-.32,4.91,2.38-.09,4.77-.27,7.15-.52-.05-1.59-.08-3.17-.08-4.75-2.26.09-4.51.24-6.75.36M573.29,152.39c.12,1.86.3,3.71.49,5.57,2.72.08,5.45.1,8.19.18-.16-1.96-.36-3.91-.57-5.85-2.71,0-5.41.08-8.11.1M589.2,152.22c.06,1.92.16,3.85.29,5.77,2.62.09,5.25.11,7.88.08-.13-1.81-.24-3.61-.35-5.42-2.61-.13-5.22-.27-7.82-.43M557.61,153.49c-1.31,1.6-.05,4.01-.23,5.93,2.75-.33,5.51-.66,8.29-.74-.09-1.83-.26-3.66-.4-5.49-2.56-.07-5.13-.04-7.66.3M605.18,152.9c.15,1.94.34,3.88.54,5.82,2.57-.02,5.15.09,7.73.2-.1-1.84-.22-3.67-.32-5.5-2.65-.23-5.3-.4-7.95-.52M681.62,153.29c-.1,1.61-.19,3.22-.25,4.84,2.38-.15,4.77-.32,7.17-.39.11-1.68.18-3.37.27-5.05-2.41.12-4.81.33-7.19.6M620.5,153.7c.07,1.78.14,3.57.22,5.36,2.82.2,5.66.28,8.49.03-.08-1.62-.14-3.23-.16-4.84-2.83-.45-5.7-.56-8.55-.55M636.82,154.29c-.04,1.72-.1,3.43-.15,5.16,2.78.24,5.57.27,8.37.22-.12-1.87-.26-3.74-.39-5.6-2.62-.04-5.23.02-7.83.22M651.84,154.38c.01,1.81.02,3.62.03,5.43,2.59-.07,5.19-.09,7.8-.02.03-1.81-.02-3.62-.08-5.42-2.59,0-5.17,0-7.75,0M666.93,154.12c.04,1.65.04,3.29,0,4.94,2.58,0,5.16-.06,7.76-.05-.01-1.74-.04-3.49-.05-5.23-2.58-.04-5.15.04-7.71.34M541.27,156.14c.11,2,.31,4,.53,5.99,2.87-.46,5.72-1.06,8.58-1.57-.33-2.07-.81-4.12-1.52-6.09-2.53.58-5.05,1.16-7.59,1.67M524.66,161.26c.35,1.97.72,3.94,1.1,5.92,3.08-.9,6.08-2.06,9.15-3.03-.42-2.01-.86-4.01-1.33-6-3.04.85-6.03,1.86-8.92,3.11M508.62,168.45c-.62,2.18.99,4.44,1.32,6.63,3.46-1.33,6.57-3.35,9.84-5.07-.67-2.13-1.35-4.25-2.08-6.35-3.05,1.54-6.3,2.78-9.08,4.79Z"/>
      <path class="cls-1" d="M620.86,105.3c1.9-3.24,1.25-7.32,3.3-10.48.97,3.17,1.61,6.43,2.44,9.64,2.58-1.53,5-3.36,7.77-4.55-1.43,2.62-3.09,5.1-4.66,7.64,3.52,1.54,7.66,1.27,10.94,3.41-3.7.88-7.51,1.17-11.25,1.77,1.17,3.03,3.23,5.59,4.5,8.57-2.74-1.35-5.05-3.36-7.53-5.09-1.08,3.31-.98,6.93-2.46,10.1-.92-3.38-1.45-6.84-2.1-10.28-2.8.93-4.93,3.06-7.49,4.43,1.24-2.65,2.7-5.19,4.12-7.74-3.41-.62-6.82-1.16-10.22-1.75,2.32-2.89,6.94-1.71,10.09-3.42-1.81-2.56-3.74-5.03-5.53-7.59,3,1.27,5.61,3.24,8.08,5.34Z"/>
      <path class="cls-1" d="M798.64,156.3c1.29,2.83,1.61,5.95,2.16,8.98,2.38-1.02,4.58-2.42,6.98-3.42-1.34,2.14-2.99,4.07-4.39,6.16,3.1.8,6.41,1.05,9.29,2.6-3.1.74-6.23,1.27-9.35,1.86,1.31,2.36,2.9,4.53,4.18,6.91-2.32-1.37-4.46-3-6.8-4.31-.69,3.04-1.21,6.12-1.86,9.17-1.11-2.94-1.65-6.05-2.03-9.15-2.3,1.18-4.37,2.75-6.54,4.12,1.04-2.28,2.36-4.42,3.4-6.7-2.9-.6-5.82-1.04-8.67-1.78-.07-.29-.2-.87-.26-1.16,2.94-.56,5.93-.93,8.89-1.43-1.63-2.39-3.47-4.62-5-7.08,2.66,1.2,5.18,2.7,7.75,4.1.6-2.99,1.11-6.02,2.25-8.87Z"/>
      <path class="cls-1" d="M672.78,185.92c1.57,2.01,1.66,4.64,2.29,7.03,1.15-.71,2.33-1.4,3.52-2.05-.75,1.2-1.56,2.37-2.34,3.56,2.14,1.01,4.93,1.12,6.44,3.16-2.45.22-4.91.27-7.35.33-.03,2.4.17,4.88-.67,7.2-1-1.62-1.8-3.32-2.54-5.06-1.93,1.32-3.75,2.79-5.65,4.13,1.04-2.03,2.11-4.06,2.96-6.18-2.11-.38-4.22-.67-6.3-1.07,1.34-1.58,3.44-1.67,5.35-1.98-.65-1.56-1.3-3.11-1.9-4.67,1.71.76,3.46,1.48,5.29,1.96.21-2.13.48-4.26.9-6.36Z"/>
      <path class="cls-1" d="M559.92,191.75c13.01-2.13,26.52,2.15,36.74,10.27,26.47,20.86,33.95,61.93,16.48,90.76-6.76,11.41-19.03,18.55-31.78,21.22-9.9,1.72-20.25-.12-29.31-4.31-15.29-7.42-25.85-22.34-30.82-38.3-6.32-19.27-4.81-41.75,6.68-58.83,7.14-11.04,19.1-18.59,32.01-20.81M552.2,256.76c-3.74,13.46-8.24,26.72-11.76,40.23,2.18,1.71,4.35,3.44,6.47,5.25,1.58-3.32,2.24-6.97,3.29-10.48,9.51-31.45,19.19-62.85,28.27-94.43-2.68-.7-5.38-1.27-8.08-1.77-6.38,20.3-11.84,40.89-18.19,61.2M588.52,201.92c-5.47,16.5-10.16,33.24-15.34,49.84-5.31,18.52-11.07,36.92-16.15,55.51,7.41,2.74,15.46,3.92,23.33,2.91,1.17-1.11,1.35-2.85,1.92-4.29,6.05-21.2,12.6-42.26,18.61-63.47,2.02-7.39,4.77-14.59,6.47-22.05-1.38-2.81-3.58-5.09-5.62-7.42-3.86-4.25-7.95-8.55-13.22-11.03Z"/>
      <path class="cls-1" d="M411,207.97c10.22-1.52,20.97-.28,30.25,4.41,15.24,6.85,25.88,21.12,31.8,36.38,7.48,17.67,7.56,38.37.1,56.05-5.41,13.02-16.48,23.37-29.63,28.33-11.96,4.82-25.59,3.93-37.48-.64-15.79-6.68-27.72-20.82-33.16-36.92-5.67-16.7-7.05-35.41-1.26-52.28,6.02-17.32,20.57-32.8,39.38-35.33M424.69,212.08c-4.58,14.83-8.9,29.75-13.58,44.55-5.62,19.89-11.59,39.68-17.57,59.47-.28,1.18-.77,2.37-.64,3.61,2.01,1.77,4.34,3.12,6.6,4.55,10.41-34.04,20.31-68.23,30.97-102.2.88-2.84,1.7-5.71,2.13-8.66-2.62-.55-5.26-1.02-7.91-1.32M429.82,262.46c-6.47,21.62-13.34,43.13-19.56,64.83,0,.47.01,1.4,0,1.87,7.93,2.85,16.68,3.36,24.93,1.76,4.21-11.93,7.18-24.23,10.94-36.29,5.22-18.6,11.19-36.99,16.05-55.7.56-1.57-.47-2.96-1.32-4.16-4.81-6.43-10.56-12.25-17.54-16.31-4.86,14.55-8.98,29.34-13.5,44Z"/>
      <path class="cls-1" d="M116.57,219.27c2.23-2.8,2.26-6.63,3.95-9.72,1.64,3.14,1.78,6.88,3.72,9.88,2.92,3.64,8.15,3.13,11.8,5.6-3.77,1.4-8.15,1.64-11.32,4.33-2.16,3.22-1.85,7.47-4.06,10.7-1.85-3.87-2.4-8.47-5.27-11.79-2.95-2-6.64-2.3-9.95-3.4,3.6-2.08,8.11-2.58,11.13-5.6Z"/>
      <path class="cls-1" d="M790.88,251.65c4.52-.95,9.57-.04,13.13,3.03,4.08,3.55,6.24,9.08,5.96,14.46-.31,8.65-4.78,16.65-10.71,22.76-6.77,7.09-15.48,13.97-25.75,14.03-7.64.26-15.26-5.83-15.4-13.73-.3-10.38,5.74-19.61,12.22-27.2,5.44-6.17,12.33-11.62,20.55-13.35Z"/>
      <path class="cls-1" d="M256.93,259.61c4.02-.8,8.02-2.03,12.17-1.83-.17,3.79-1.8,7.26-2.94,10.82-3.74,11.65-7.37,23.33-11,35.02-.65,1.78-1.28,4.13-3.44,4.55-8.77,2.06-17.58,3.99-26.45,5.58-1.67.15-4.38.87-4.89-1.41-1.94-5.45-2.27-11.29-3.27-16.95-1.19-9.02-3.58-17.85-4.46-26.91,14.78-2.85,29.56-5.72,44.28-8.87M233.83,277.38c-5.13,1.68-7.56,8.39-4.42,12.88,3.32,6.15,13.4,4.93,15.78-1.45,3.38-6.66-4.78-14.36-11.36-11.43Z"/>
      <path class="cls-1" d="M33.64,292.75c1.85,2.93,1.68,6.55,2.68,9.79,2.44-1.49,4.86-3.01,7.43-4.24-1.27,2.52-3.17,4.66-4.38,7.22,3.09.63,6.22,1.18,9.27,2.01-2.96,1.76-6.54,1.69-9.79,2.61,1.55,2.34,3.21,4.62,4.52,7.12-2.31-1.62-4.56-3.35-7.03-4.74-1.38,2.81-1.64,5.95-2.1,9-2.51-2.07-1.91-5.88-2.81-8.75-2.73,1.28-5.15,3.08-7.75,4.57,1.52-2.51,3.34-4.82,5.05-7.2-3.47-.95-7.29-.89-10.44-2.77,3.42-.8,6.95-1.1,10.32-2.13-1.57-2.48-3.37-4.79-4.94-7.27,2.44,1.21,4.55,2.96,6.87,4.37,2.33-2.26,1.71-6.59,3.1-9.59Z"/>
      <path class="cls-1" d="M179.47,312.2c4.56-.57,9.17-.52,13.75-.8v.34c-43.92,4.38-87.69,12.04-129.91,25.16-3.58,1.11-7.08,2.52-10.78,3.16,11.19-4.74,22.9-8.12,34.61-11.27,30.22-8.23,61.19-13.46,92.33-16.59Z"/>
      <path class="cls-1" d="M68.13,349.68c35.37-12.85,72.67-19.37,109.88-24.11.05.24.15.71.19.95-.66.04-1.99.12-2.65.16-29.64,5.12-59.14,11.48-87.81,20.64-20.78,6.84-41.76,14.47-59.53,27.54-3.88,3.09-7.94,6.61-9.49,11.49-1.19,3.17.23,6.76,2.76,8.83,4.12,3.47,9.53,4.79,14.75,5.5-.04.31-.11.94-.14,1.25-5.27-.73-10.77-1.24-15.49-3.91-4.4-2.53-7.6-7.75-6.27-12.9,1.53-5.75,6.13-9.95,10.61-13.55,12.94-9.84,27.99-16.4,43.19-21.89Z"/>
      <path class="cls-1" d="M642.43,341.08c1.61-2.08,2.31-4.69,3.57-6.98,1.05,2.63,1.55,5.83,4.03,7.57,2.18,1.41,4.75,2.07,7.06,3.27-2.74,1.06-6,1.39-8.08,3.66-1.54,2.19-1.93,4.96-3.22,7.29-1.28-2.42-2.1-5.06-3.53-7.39-2.23-2.09-5.51-2.43-8.01-4.11,2.74-1.04,5.77-1.55,8.18-3.31Z"/>
      <path class="cls-1" d="M782.96,362.31c6.07.93,12.65,2.77,16.59,7.85,2.66,3.29,2.38,8.25-.39,11.39,1.01-3.38,1.56-7.3-.8-10.29-3.67-4.72-9.78-6.79-15.48-7.74.02-.3.06-.91.08-1.21Z"/>
      <path class="cls-1" d="M803.62,398.21c2.07-2.85,2.95-6.34,4.82-9.31.15,7.38-5.14,13.25-9.97,18.21-5.49,5.14-11.23,10.43-18.28,13.31,1.81-2.43,4.48-3.94,6.77-5.85,6-4.95,12.18-9.92,16.66-16.36Z"/>
      <path class="cls-1" d="M782.65,410.2c2.72-2.7,4.34-6.23,6.81-9.13-2.83,9.99-11.47,16.68-19.57,22.43-14.77,10.06-31.03,17.7-47.52,24.47-6.55,2.18-12.9,5.44-19.86,6,16.53-6.15,32.7-13.32,48.36-21.46,11.36-6.21,22.74-12.9,31.78-22.31Z"/>
      <path class="cls-1" d="M753.16,420.81c3.99-2.61,7.26-6.14,11.18-8.84-4.24,6.46-10.99,10.54-17.25,14.77-13.07,8.54-27.56,14.57-42.21,19.8-15.21,5.05-30.59,9.99-46.45,12.49,4.74-1.88,9.88-2.52,14.74-4.07,27.9-7.95,56.1-17.2,79.99-34.15Z"/>
      <path class="cls-1" d="M190.67,443.64c1.26-4.06,1.37-8.4,2.9-12.39,1.83,3.87,2.18,8.19,3.02,12.34,3.43-1.66,6.39-4.15,9.89-5.65-1.93,3.16-4.38,5.97-6.22,9.2,4.44.87,8.9,1.63,13.32,2.62-4.17,1.79-8.75,2.24-13.1,3.4,1.76,3.49,4.27,6.52,6.23,9.9-3.43-2.04-6.48-4.69-10.12-6.37-.89,3.99-.86,8.3-2.8,11.98-1.25-4.03-1.97-8.2-3.14-12.24-3.37,1.59-6.17,4.08-9.39,5.91,1.48-3.34,3.94-6.08,5.82-9.17-4.08-.99-8.29-1.54-12.22-3.07,3.78-1.78,8.07-1.77,12.04-2.93-1.88-3.24-4.2-6.18-6.32-9.25,3.58,1.5,6.66,3.92,10.09,5.72Z"/>
      <path class="cls-1" d="M752.03,474.72c.48-1.06.97-2.11,1.48-3.16,1.11,1.74,1.86,3.77,3.35,5.26,1.89,1.04,3.97,1.7,5.82,2.84-2.06.78-4.34,1.19-6.11,2.56-1.32,1.68-1.98,3.76-2.95,5.64-.89-1.73-1.55-3.57-2.69-5.13-1.81-1.4-4.14-1.83-6.17-2.75,2.42-1.71,6.1-2.21,7.27-5.26Z"/>
      <path class="cls-1" d="M692.83,495.07c1.57-4.22,1.44-8.94,3.63-12.94,1.62,4.15,1.82,8.67,3.11,12.92,3.49-1.77,6.5-4.35,10.07-5.98-1.93,3.29-4.61,6.07-6.68,9.27,4.38,1.05,9,1.16,13.21,2.89-4.08,1.65-8.52,1.95-12.79,2.86,1.74,3.54,4.26,6.63,6.01,10.18-3.39-2.17-6.58-4.63-9.9-6.9-1.41,3.88-1.55,8.12-3.08,11.94-2.23-3.15-2.13-7.59-3.41-11.24-3.55,1.14-6.16,3.96-9.5,5.5,1.74-3.26,3.95-6.23,5.93-9.33-4.3-1.3-8.97-1.42-13.04-3.38,4.34-1.02,8.77-1.65,13.1-2.73-2.13-3.05-4.85-5.7-6.39-9.13,3.52,1.55,6.56,3.94,9.73,6.07Z"/>
      <path class="cls-1" d="M628.62,561.26c1.19-1.41,1.78-3.2,2.7-4.77.79,1.48,1.43,3.08,2.45,4.45,1.66,1.39,3.88,1.8,5.84,2.64-1.87,1.04-3.9,1.78-5.71,2.93-1.48,1.33-1.76,3.44-2.55,5.18-1.17-3.98-4.36-6.5-8.19-7.72,1.8-.93,3.85-1.44,5.46-2.71Z"/>
      <path class="cls-1" d="M20.67,575.7c1.12,1.69,1.97,3.56,3.19,5.19,1.81,1.18,3.92,1.8,5.83,2.83-1.61.57-3.28,1-4.82,1.76-2.18,1.13-2.66,3.75-3.65,5.78-.88-1.4-1.64-2.87-2.52-4.27-1.12-1.97-4.09-1.86-5.18-3.74,1.46-.98,3.28-1.32,4.64-2.44,1.16-1.53,1.67-3.42,2.51-5.11Z"/>
      <path class="cls-1" d="M93.13,584.77c3.46-.82,6.99-1.38,10.55-1.41-18.75,5.17-37.59,11.21-54.04,21.88-7.4,4.51-12.84,11.68-16.67,19.33-.46,1.61-1.98,3.52-1.02,5.15,3.02,1.25,6.4.88,9.57.68,16.44-2.07,32.4-7.38,47-15.17-2.99,3.24-7.11,5.02-10.96,7-11.92,5.88-24.83,9.84-38.06,11.21-3.48.38-6.96-.08-10.37-.69-2.18-.61-3.35,2.04-4.81,3.22-2.55,2.35-3.57,6.38-7.12,7.52.69-4.7,1.92-9.38,1.4-14.17-2.91,3.05-5.32,7.48-4.01,11.79,1.44,5.7,5.22,10.64,10.06,13.91,8.27,5.78,18.5,7.59,28.29,8.9,1.33.12,2.6.56,3.8,1.15-3.67.45-7.37.12-11.04-.06-.04,3.79-.2,7.58-.39,11.38,3.56,1.16,7.27,1.67,10.99,2.04-.03.36-.08,1.06-.11,1.41-13.74.18-28.68-2.65-39.02-12.34-4.93-4.75-8.89-11.29-8.39-18.36.63-7.93,2.23-16.16,7.02-22.72,5.9-8.49,14.68-14.2,23.08-19.94,16.49-10.62,35.12-17.62,54.25-21.71M27.86,619.53c-.37,1.98-.26,4.01-.23,6.03,2.35-3.66,3.92-7.73,6.06-11.5-2.09,1.62-4.53,3.08-5.83,5.47M20.38,636.3c1.78-1.67,3.66-3.31,4.99-5.38.42-3.07.2-6.18.15-9.26-5.18,2.99-5.61,9.31-5.14,14.64M13.5,657.45c.32-2.68.91-5.37.67-8.07-.59-2.5-1.6-4.89-2.41-7.31-1.98,4.97-1.95,11.18,1.74,15.38M18.38,654.66c-.16,2.5-.43,5.01-.39,7.53,1.37,2.62,4.23,4.01,6.67,5.49.06-2.76.89-5.67.04-8.33-2-1.71-4.21-3.14-6.32-4.69M31.15,662.44c-.11,2.93-.19,5.87-.18,8.81,2.99,1.18,6.03,2.22,9.16,2.95.13-3.19.23-6.37.16-9.55-3.08-.59-6.11-1.42-9.14-2.21Z"/>
      <path class="cls-1" d="M516.79,648.53c8.91-1.74,17.77-3.93,26.78-5.08-1.49.85-3.14,1.38-4.8,1.77-28.76,6.99-57.85,12.47-86.9,18.1-7.83,1.21-15.55,3.36-23.5,3.61,29.46-6.11,58.87-12.64,88.42-18.4Z"/>
      <path class="cls-1" d="M534.44,664.69c3.77-.45,7.57-1,11.38-.61-3.85,3.23-9.22,3.35-13.85,4.78-50.03,10.78-100.77,17.68-151.35,25.22-5.73.78-11.45,1.66-17.24,1.83,19.31-3.91,38.81-6.94,58.18-10.59,20.23-3.65,40.38-7.69,60.58-11.52,17.37-3.36,34.73-6.91,52.3-9.11Z"/>
      <path class="cls-1" d="M214.13,694.12c.84,2.11,1.58,4.25,2.36,6.4,1.68-.72,3.34-1.49,5.01-2.23-.88,1.52-1.85,2.99-2.55,4.61,1.51,1.15,3.9.86,5.68,1.71-2.09.63-4.18,1.26-6.17,2.15,1.08,1.67,2.14,3.38,3.17,5.09-1.87-1.34-3.75-2.81-6.1-3.11-.35,2.14-.69,4.29-.95,6.45-1.05-2.04-1.54-4.29-2.01-6.51-1.4.63-2.8,1.27-4.21,1.89.57-1.47,1.19-2.91,1.77-4.36-2.03-.35-4.05-.73-6.03-1.28,1.88-1.19,4.1-1.48,6.24-1.87-1-1.58-1.96-3.16-2.79-4.81,1.75.75,3.44,1.64,5.13,2.54.56-2.22,1.03-4.44,1.45-6.67Z"/>
      <path class="cls-1" d="M503.45,707.37c17.43-2.14,34.84-4.96,52.43-5.18-2.83,2.68-7.05,2.53-10.61,3.52-57.22,10.86-115.13,17.46-172.93,24.34-24.54,3.23-49.18,5.71-73.82,8.09-11.24,1.08-22.48,2.53-33.78,2.83l.09-.42c23.66-3.47,47.27-7.3,71.01-10.17,55.93-7.22,111.76-15.2,167.61-23.01Z"/>
      <path class="cls-1" d="M43.94,705.04c1.45,2.21,2.23,4.79,3.8,6.93,1.87,1.96,4.73,2.33,7.11,3.41-2.54,1.57-5.94,1.76-7.95,4.13-1.18,1.94-1.84,4.16-3.13,6.05-1-2.23-1.43-4.78-2.99-6.71-2.09-1.74-4.87-2.22-7.33-3.21,2.3-1.31,4.94-1.94,7.16-3.38,1.74-2.06,2.26-4.81,3.33-7.22Z"/>
      <path class="cls-1" d="M452.57,745.74c35.46-4.18,70.91-8.61,106.53-11.18.02.26.05.77.06,1.02-38.36,5.91-76.95,10.35-115.63,13.56-18.04,1.24-36.03,3.7-54.14,3.62,4.3-1.01,8.75-.79,13.11-1.35,16.68-1.97,33.38-3.79,50.07-5.67Z"/>
      <path class="cls-1" d="M324.52,769.9c30.54-.07,61.08-.33,91.62-.21-.01.22-.02.66-.03.89-15.82-.28-31.64,1.12-47.46,1.33-16.37,1.07-32.78,1.54-49.16,2.57-13.52.16-27,1.96-40.54,1.3,0,.19,0,.58-.02.78,8.18-.66,16.41.25,24.58-.61,35.67-.66,71.33-2.23,107.01-2.28,21.34-.06,42.67-.38,64.01-.4,6.05.35,12.19-.54,18.18.51-35.52,1.61-71.04,3.41-106.58,4.95-6.74.64-13.5.79-20.27.81l-.07.24c15.91.45,31.82-.44,47.73-.49,38.6-1.11,77.23-.6,115.83-1.46,10.08-.11,20.16-.36,30.23.01-3.28.86-6.7.63-10.05.78-18.39.5-36.74,1.89-55.13,2.42-16.64.86-33.3,1.4-49.91,2.62-3.84.12-7.69.44-11.52.13l-.04.76c26.19-.37,52.39-1.49,78.59-1.23,18.33-.04,36.67-.02,55-.03,18.36-.34,36.73-.79,55.09-.47-2.59.9-5.37.65-8.06.8-32.09,1.17-64.16,2.64-96.24,4.13-6.16.54-12.33.78-18.5.79l.04.23c32.56.55,65.11-1.1,97.67-.83,24.21-.22,48.42-.18,72.63-.3,0,.25-.01.73-.01.98-12.88-.22-25.74.97-38.61,1.3-16.69.95-33.39,1.74-50.08,2.59-6.9.21-13.76,1.24-20.67.93v.43c28.58.22,57.15-1.29,85.74-1.13,14.35-.12,28.71-.19,43.07-.01,2.03,0,4.1.1,6.04.8-23.96.72-47.88,2.62-71.79,3.97l-.04.33c23.9-.22,47.82.13,71.73-.18,2.45.13,5.11-.33,7.34.98-15.44.76-30.91,1.07-46.38,1.25,4.29.82,8.67.36,13.01.64,12.05.3,24.05,1.54,36.05,2.67,6.24.77,12.53,1.56,18.55,3.44,1.46.65,4.08,1.15,3.35,3.33-2.37,2.05-5.57,2.64-8.51,3.41-11.65,2.5-23.52,3.88-35.39,4.84-52.19,4.39-104.61,4.96-156.95,5.44-18.29.43-36.58.17-54.86.31l.06-.48c16.43-1.45,32.96-1.43,49.43-2.5,16.1-.64,32.21-1.29,48.31-2.1,8.58-.15,17.1-1.43,25.7-1.06l-.03-.31c-33.24-.06-66.46,1.35-99.7,1.82-37.58.14-75.16.93-112.75.67l-.03-.61c16.25-.9,32.52-1.3,48.78-1.95,16.97-1.01,33.99-.75,50.96-1.79,17.91-.48,35.79-1.81,53.72-1.86l.06-.27c-33.25-.75-66.48,1.17-99.73,1.49-44.23.52-88.47,1.16-132.71.91l-.07-.5c45.69-1.62,91.39-3.34,137.07-5.13,9.11-.95,18.3-.43,27.39-1.65v-.15c-8.18.86-16.43.08-24.63.81-39.68.67-79.36,1.87-119.05,1.98-26.93-.1-53.86.25-80.78-.3l.02-.58c38.25-1.28,76.48-2.75,114.72-4.24,12.91-.23,25.78-1.36,38.69-1.37l.08-.25c-32.58-.1-65.15,1.23-97.73,1.6-20,.39-40.01.15-60.01.33-14.6-.11-29.22.22-43.81-.5l.04-.64c28.94-.54,57.86-2.27,86.8-3.34,14.2-.33,28.35-2.08,42.57-1.44-.01-.19-.02-.57-.02-.77-8.49.58-17.03-.23-25.52.61-20.02.01-40.04.91-60.07,1.03-26.32.18-52.65.3-78.98,0-4.36-.22-8.83.52-13.1-.59,14.05-.07,28.05-1.35,42.1-1.48,13.8-.55,27.59-1.33,41.4-1.67,10.71-.7,21.45-1.2,32.18-1.17,0-.18,0-.53-.02-.71-20.85.24-41.7.7-62.56.85-22.33.21-44.67-.16-67.01-.15-5.92.13-11.8-.62-17.71-.63l-.04-.48c12.26.4,24.49-.82,36.75-1.03,22.91-.43,45.8-1.57,68.71-1.52v-.36c-6.89.12-13.79-.17-20.68-.5-29.67.1-59.35.15-89.03-.33-4.39-.23-8.94.3-13.16-1.17,25.09.45,50.13-1.94,75.22-1.92-3.94-1.03-8.03-.59-12.05-.69-24-.25-48.07.48-72.02-1.64-4.51-.66-9.24-.79-13.46-2.63-1.96-1.58,1.18-3.08,2.56-3.4,11.36-3.11,23.2-3.75,34.88-4.87,51.58-3.85,103.34-4.17,155.04-4.86,19,.04,38-.64,57-.57Z"/>
    </g>
  </g>
</svg>