<svg width="180" height="175" viewBox="0 0 180 175" fill="none" xmlns="http://www.w3.org/2000/svg">
<path d="M124.466 29.6631C129.956 29.6559 135.338 31.1936 139.996 34.1006C140.002 34.1046 140.008 34.1081 140.012 34.1104C140.031 34.1224 140.047 34.1326 140.053 34.1357C140.066 34.1436 140.08 34.1513 140.089 34.1562C140.111 34.169 140.133 34.1824 140.167 34.2021C140.231 34.2397 140.327 34.2965 140.453 34.3721C140.705 34.5234 141.082 34.7529 141.564 35.0615C142.531 35.6795 143.926 36.6131 145.61 37.8623C148.983 40.363 153.503 44.1169 158.08 49.1221C165.433 57.1626 172.875 68.3653 176.023 82.7578C172.635 78.0459 168.794 73.6637 164.551 69.6777C163.572 68.7545 162.396 68.0659 161.111 67.665C159.824 67.2634 158.463 67.161 157.13 67.3652C155.797 67.5695 154.529 68.0751 153.421 68.8438C152.313 69.6124 151.395 70.6238 150.737 71.8008L150.709 71.8506L150.684 71.9023C149.218 74.8356 147.29 77.5139 144.972 79.833C141.048 83.6737 136.122 86.3332 130.758 87.5068C125.394 88.6803 119.809 88.3208 114.64 86.4697C109.47 84.6186 104.926 81.3508 101.526 77.0391C98.127 72.7274 96.0099 67.5462 95.416 62.0879C94.8222 56.6295 95.7762 51.1137 98.1689 46.1719C100.562 41.23 104.297 37.0609 108.947 34.1416C113.598 31.2224 118.975 29.6703 124.466 29.6631Z" stroke="black" stroke-width="5"/>
<path d="M76.1211 109.192C80.0715 108.501 84.1218 108.63 88.0205 109.569C91.9192 110.509 95.5826 112.241 98.7842 114.656C101.986 117.071 104.657 120.119 106.632 123.609C108.606 127.1 109.842 130.959 110.263 134.947C110.683 138.936 110.278 142.968 109.075 146.794C107.872 150.619 105.895 154.157 103.268 157.187C100.64 160.216 97.4177 162.673 93.8008 164.405L93.415 164.59L93.4043 164.6C93.394 164.604 93.3838 164.61 93.373 164.615C93.1113 164.739 92.7127 164.923 92.1885 165.151C91.1399 165.609 89.59 166.244 87.6162 166.943C83.6647 168.344 78.0344 169.997 71.3398 170.998C60.6016 172.604 47.2156 172.527 33.6074 167.147C39.3735 166.968 45.1179 166.23 50.7588 164.937L50.7793 164.933L50.7988 164.928C52.1052 164.605 53.3202 163.987 54.3496 163.12C55.379 162.254 56.1959 161.162 56.7363 159.93C57.2768 158.697 57.5266 157.357 57.4668 156.013C57.407 154.669 57.0392 153.356 56.3916 152.177L56.3848 152.165L56.3789 152.154L56.084 151.617C54.7337 149.102 53.7422 146.409 53.1377 143.619L53.0137 143.02C51.9634 137.468 52.5451 131.731 54.6885 126.503C56.8315 121.276 60.4439 116.783 65.0879 113.566C68.4281 111.37 72.1831 109.881 76.1211 109.192Z" stroke="black" stroke-width="5"/>
<path d="M27.4834 9.40625C24.9933 14.7034 23.0132 20.2353 21.5762 25.9277L21.5723 25.9453C21.2511 27.2571 21.2386 28.6258 21.5352 29.9434C21.8317 31.2607 22.4292 32.4915 23.2812 33.5391C24.1334 34.5866 25.2169 35.4229 26.4463 35.9814C27.6759 36.54 29.0185 36.8062 30.3682 36.7588L30.3779 36.7578H30.3867C33.6361 36.6195 36.8866 37.0048 40.0137 37.8984H40.0146C45.4232 39.4893 50.2563 42.6109 53.9307 46.8867C57.605 51.1626 59.9646 56.4107 60.7236 61.9971L60.7246 62.0088C61.2936 66.0527 61.01 70.171 59.8916 74.0986C58.7731 78.0264 56.8446 81.6768 54.2305 84.8145C51.6164 87.9521 48.3741 90.5081 44.7129 92.3174C41.0519 94.1265 37.0527 95.1487 32.9727 95.3193C28.8923 95.4899 24.8209 94.805 21.0215 93.3076C17.222 91.8102 13.7779 89.5336 10.9111 86.625C8.04435 83.7164 5.81832 80.2397 4.37598 76.4189C2.93368 72.5983 2.30659 68.5178 2.53613 64.4404L2.54004 64.3701V64.2998C2.54156 64.1521 2.62577 54.039 6.86133 41.3516C10.3082 31.0266 16.4677 19.0997 27.4834 9.40625Z" stroke="black" stroke-width="5"/>
</svg>
