<svg width="180" height="175" viewBox="0 0 180 175" fill="none" xmlns="http://www.w3.org/2000/svg">
<path d="M141.32 31.9801C136.264 28.8246 130.422 27.1553 124.463 27.1631C118.503 27.1709 112.665 28.8555 107.618 32.0242C102.57 35.193 98.516 39.7181 95.9187 45.0822C93.3215 50.4463 92.2859 56.4329 92.9304 62.3578C93.575 68.2826 95.8736 73.9066 99.5635 78.5868C103.253 83.2669 108.186 86.8144 113.797 88.8237C119.408 90.833 125.471 91.223 131.293 89.9491C137.115 88.6752 142.461 85.7889 146.72 81.6201C149.237 79.1063 151.33 76.2022 152.92 73.0201C153.392 72.1752 154.051 71.4492 154.846 70.8975C155.641 70.3457 156.552 69.9827 157.509 69.8361C158.465 69.6895 159.443 69.7632 160.367 70.0516C161.291 70.3399 162.137 70.8353 162.84 71.5001C169.725 77.9672 175.52 85.5043 180 93.8201C178 52.5401 141.36 32.0201 141.32 31.9801Z" fill="black"/>
<path d="M63.6802 111.5C58.6313 114.992 54.7042 119.875 52.3753 125.555C50.0465 131.235 49.4159 137.469 50.5602 143.5C51.2389 146.966 52.4678 150.302 54.2002 153.38C54.6635 154.224 54.9267 155.163 54.9694 156.124C55.0122 157.086 54.8333 158.044 54.4468 158.925C54.0602 159.807 53.4762 160.588 52.7399 161.207C52.0036 161.827 51.1346 162.27 50.2002 162.5C41.0244 164.603 31.5672 165.198 22.2002 164.26C57.3602 185.58 94.8402 166.7 94.8802 166.66C98.8063 164.78 102.304 162.113 105.156 158.825C108.008 155.536 110.154 151.696 111.46 147.544C112.766 143.391 113.205 139.015 112.748 134.686C112.292 130.357 110.951 126.167 108.808 122.379C106.665 118.59 103.765 115.282 100.29 112.66C96.8151 110.039 92.8382 108.159 88.6063 107.139C84.3745 106.119 79.9781 105.98 75.6902 106.73C71.4023 107.48 67.3143 109.104 63.6802 111.5Z" fill="black"/>
<path d="M63.2004 61.6601C62.3764 55.5958 59.8156 49.8993 55.8269 45.2576C51.8382 40.6159 46.5918 37.2272 40.7204 35.5001C37.3296 34.5288 33.8045 34.1101 30.2804 34.2601C29.3168 34.2939 28.3585 34.104 27.4806 33.7052C26.6028 33.3065 25.8293 32.7097 25.2208 31.9617C24.6123 31.2137 24.1855 30.3349 23.9738 29.3942C23.762 28.4536 23.7712 27.4766 24.0004 26.5401C26.3176 17.3613 30.085 8.61128 35.1604 0.620117C0.200451 22.2601 0.040446 64.2601 0.040446 64.3001C-0.208714 68.726 0.471374 73.155 2.03696 77.3022C3.60255 81.4494 6.01895 85.2229 9.13071 88.38C12.2425 91.5371 15.9807 94.0078 20.1048 95.6332C24.2289 97.2586 28.6476 98.0027 33.0766 97.8176C37.5056 97.6324 41.8468 96.5222 45.8209 94.5583C49.795 92.5944 53.3139 89.8204 56.1514 86.4146C58.9888 83.0088 61.0819 79.0468 62.2959 74.7834C63.51 70.52 63.8181 66.0497 63.2004 61.6601Z" fill="black"/>
</svg>
